<svg xmlns="http://www.w3.org/2000/svg" width="40" height="46" fill="none"><path stroke="url(#a)" stroke-linecap="round" stroke-linejoin="round" d="M13.492 4.18 18.794.875A2 2 0 0 1 20.88.857l5.55 3.325m-12.94 0 6.342 3.774m-6.34-3.776v7.368M26.43 4.181l-6.598 3.774M26.43 4.18v7.368m-6.598-3.594V22.69m-6.341-3.774 6.34 3.774m-6.34-3.774L.732 11.55m12.76 7.368V11.55m0 7.368-6.47 3.919m19.409-3.919-6.598 3.774m6.598-3.774V11.55m0 7.368 6.38-3.684 6.38-3.684m-12.76 7.368 6.436 3.898m-13.034-.124-6.341 3.954-6.47 3.774m12.81-7.728 6.599 3.954 6.47 3.774m-13.068-7.728v7.728m0 0v14.737m0-14.737 6.598 3.792m-6.598-3.792-6.341 3.723m6.34 11.014 5.592-3.198a2 2 0 0 0 1.007-1.736V34.21m-6.598 10.945-5.364-3.193a2 2 0 0 1-.977-1.718v-6.103m25.699-7.497L32.9 30.42m6.29-3.774-6.324-3.83m6.324 3.83v6.545a2 2 0 0 1-1.037 1.753l-5.343 2.934m.09-7.458-.09 7.458M7.02 30.42v7.522m0-7.522L.73 26.646m0 0v6.57c0 .716.384 1.378 1.006 1.733 1.548.885 3.457 1.968 5.285 2.993M.732 26.645l6.29-3.81M.732 11.55l5.304-3.063a2 2 0 0 1 1.979-.012l5.477 3.075m-12.76 0v6.41a2 2 0 0 0 .978 1.72l5.312 3.157M39.19 11.549l-5.304-3.063a2 2 0 0 0-1.98-.012l-5.476 3.075m12.76 0v6.255c0 .692-.358 1.335-.946 1.7a1436.76 1436.76 0 0 1-5.378 3.311M7.022 37.941l6.47-3.799m19.319 3.735-6.38-3.666"/><defs><linearGradient id="a" x1="10.545" x2="32.212" y1="14.727" y2="33.242" gradientUnits="userSpaceOnUse"><stop stop-color="#80E5FF"/><stop offset="1" stop-color="#7584D6"/></linearGradient></defs></svg>