<svg xmlns="http://www.w3.org/2000/svg" width="541" height="122" fill="none"><g fill="#F9FAFB" clip-path="url(#a)"><path d="M53.075 32.07v22.068H43.58c-6.782 0-11.756 2.07-14.922 6.207-3.165 4.138-4.748 9.77-4.748 16.897v43.449H0V32.069h21.705l2.204 13.276c2.6-4.368 5.822-7.644 9.666-9.828 3.843-2.298 8.987-3.448 15.43-3.448h4.07Zm-2.31 44.482c0-9.195 1.809-17.184 5.426-23.965 3.73-6.897 8.874-12.184 15.43-15.863 6.67-3.793 14.358-5.69 23.062-5.69 8.818 0 16.561 1.782 23.231 5.346 6.783 3.448 12.039 8.39 15.77 14.827 3.844 6.322 5.822 13.794 5.935 22.414 0 3.104-.226 5.862-.678 8.276h-63.25v.69c.566 6.437 2.6 11.494 6.105 15.172 3.504 3.679 8.309 5.518 14.413 5.518 4.861 0 8.874-1.035 12.04-3.104 3.278-2.184 5.426-5.345 6.443-9.483h23.57c-.904 5.862-3.108 11.15-6.613 15.862-3.504 4.713-8.139 8.449-13.904 11.207-5.766 2.644-12.379 3.966-19.84 3.966-9.722 0-18.144-1.839-25.266-5.517-7.009-3.678-12.435-8.908-16.278-15.69-3.731-6.897-5.596-14.885-5.596-23.966Zm64.945-10.517c-.792-5.402-2.996-9.54-6.613-12.414-3.505-2.989-7.97-4.483-13.396-4.483-5.2 0-9.61 1.552-13.227 4.656-3.504 2.988-5.596 7.069-6.274 12.241h39.51Zm49.03 25.173c.339 3.908 2.205 7.069 5.596 9.482 3.391 2.414 7.744 3.621 13.057 3.621 5.087 0 9.1-.805 12.039-2.414 2.94-1.724 4.409-4.138 4.409-7.241 0-2.299-.678-4.023-2.035-5.173-1.356-1.149-3.278-1.954-5.765-2.413-2.487-.575-6.557-1.207-12.209-1.897-7.687-1.035-14.074-2.356-19.161-3.966-5.087-1.609-9.157-4.137-12.209-7.586-3.053-3.448-4.579-8.046-4.579-13.793s1.526-10.805 4.579-15.172c3.165-4.483 7.574-7.932 13.226-10.345 5.652-2.414 12.153-3.621 19.501-3.621 11.869.115 21.422 2.701 28.657 7.759 7.348 5.057 11.304 12.069 11.87 21.034h-22.723c-.339-3.333-2.091-6.034-5.256-8.103-3.053-2.184-7.009-3.276-11.87-3.276-4.522 0-8.196.862-11.022 2.586-2.713 1.724-4.07 4.023-4.07 6.897 0 2.069.735 3.62 2.205 4.655 1.469 1.034 3.391 1.781 5.765 2.241 2.374.46 6.33.977 11.87 1.552 11.757 1.38 20.744 3.966 26.961 7.759 6.331 3.678 9.496 10.057 9.496 19.138 0 5.747-1.696 10.804-5.087 15.172-3.278 4.368-7.913 7.759-13.905 10.173-5.878 2.299-12.717 3.448-20.518 3.448-12.095 0-21.93-2.701-29.505-8.103-7.574-5.518-11.587-12.989-12.039-22.414h22.722Zm149.058-4.138c-1.582 10.804-6.104 19.31-13.565 25.517-7.348 6.092-16.901 9.138-28.658 9.138-9.043 0-16.956-1.839-23.739-5.517-6.783-3.793-12.04-9.138-15.77-16.035-3.618-6.897-5.426-14.828-5.426-23.793 0-9.08 1.808-17.012 5.426-23.793 3.73-6.897 8.987-12.184 15.77-15.863 6.896-3.793 14.865-5.69 23.909-5.69 11.644 0 21.14 3.047 28.488 9.139 7.348 5.977 11.869 14.31 13.565 25h-24.757c-1.017-4.368-3.052-7.816-6.104-10.345-3.053-2.644-6.84-3.966-11.362-3.966-6.217 0-11.191 2.357-14.922 7.07-3.73 4.712-5.595 10.862-5.595 18.448s1.865 13.736 5.595 18.448c3.731 4.713 8.705 7.069 14.922 7.069 4.635 0 8.479-1.322 11.531-3.965 3.165-2.644 5.2-6.265 6.105-10.862h24.587Zm91.96 13.103v20.518h-12.209c-10.966 0-16.336-4.828-16.109-14.483-3.166 5.057-7.066 8.908-11.701 11.551-4.635 2.644-10.23 3.966-16.787 3.966-9.722 0-17.579-2.241-23.57-6.724-5.879-4.598-8.818-11.035-8.818-19.31 0-9.426 3.392-16.667 10.174-21.725 6.896-5.172 16.844-7.759 29.845-7.759h17.296v-4.31c0-4.023-1.47-7.184-4.409-9.483-2.939-2.414-6.896-3.62-11.87-3.62-4.409 0-8.026.977-10.852 2.93-2.827 1.955-4.522 4.598-5.088 7.932h-23.061c.791-9.08 4.748-16.093 11.87-21.035 7.122-5.058 16.561-7.586 28.318-7.586 12.322 0 21.818 2.758 28.488 8.276 6.782 5.517 10.174 13.505 10.174 23.965v31.207c0 2.184.452 3.679 1.356 4.483.905.805 2.318 1.207 4.239 1.207h2.714Zm-31.879-17.759h-17.466c-4.974 0-8.874 1.035-11.7 3.104-2.713 1.954-4.07 4.77-4.07 8.448 0 3.104 1.131 5.575 3.391 7.414 2.374 1.839 5.54 2.759 9.496 2.759 6.218 0 11.135-1.782 14.753-5.345 3.617-3.678 5.483-8.563 5.596-14.656v-1.724ZM408.224 0h23.91v120.691h-23.91V0Zm30.397 76.552c0-9.195 1.809-17.184 5.426-23.965 3.731-6.897 8.874-12.184 15.431-15.863 6.67-3.793 14.357-5.69 23.061-5.69 8.818 0 16.561 1.782 23.231 5.346 6.783 3.448 12.04 8.39 15.77 14.827 3.844 6.322 5.822 13.794 5.935 22.414 0 3.104-.226 5.862-.678 8.276h-63.25v.69c.566 6.437 2.601 11.494 6.105 15.172 3.504 3.679 8.309 5.518 14.413 5.518 4.861 0 8.874-1.035 12.04-3.104 3.278-2.184 5.426-5.345 6.443-9.483h23.57c-.904 5.862-3.108 11.15-6.613 15.862-3.504 4.713-8.139 8.449-13.904 11.207-5.766 2.644-12.379 3.966-19.84 3.966-9.722 0-18.144-1.839-25.266-5.517-7.009-3.678-12.435-8.908-16.278-15.69-3.731-6.897-5.596-14.885-5.596-23.966Zm64.945-10.517c-.792-5.402-2.996-9.54-6.613-12.414-3.505-2.989-7.97-4.483-13.396-4.483-5.2 0-9.609 1.552-13.227 4.656-3.504 2.988-5.596 7.069-6.274 12.241h39.51Z"/><path fill-rule="evenodd" d="M524.094 31.7c8.17 0 14.793-6.624 14.793-14.794 0-8.17-6.623-14.793-14.793-14.793-8.17 0-14.793 6.623-14.793 14.793 0 8.17 6.623 14.793 14.793 14.793Zm0 2.113c9.337 0 16.906-7.57 16.906-16.907S533.431 0 524.094 0s-16.906 7.57-16.906 16.906c0 9.337 7.569 16.907 16.906 16.907Z" clip-rule="evenodd"/><path d="M524.753 8.453c1.234 0 2.316.237 3.246.71a4.993 4.993 0 0 1 2.156 1.978c.524.845.786 1.835.786 2.967 0 1.184-.313 2.223-.939 3.12a5.037 5.037 0 0 1-2.51 1.901l3.753 7.076h-3.246l-3.373-6.442h-3.956v6.442h-2.916V8.453h6.999Zm-4.083 8.774h3.855c1.048 0 1.876-.279 2.485-.836.626-.575.938-1.336.938-2.283 0-.947-.312-1.699-.938-2.257-.609-.575-1.437-.862-2.485-.862h-3.855v6.238Z"/></g><defs><clipPath id="a"><path fill="#fff" d="M0 0h541v121.725H0z"/></clipPath></defs></svg>