<svg xmlns="http://www.w3.org/2000/svg" width="26" height="27" fill="none"><path fill="#7584D6" d="M25.21 12.142c0-.089-.018-.166-.024-.255C24.92 5.291 19.384 0 12.606 0 5.825 0 .29 5.291.023 11.893c-.006.083-.024.166-.024.255 0 .018.006.03.012.048 0 .065-.012.13-.012.195a.43.43 0 0 0 .435.427.43.43 0 0 0 .434-.427c0-.172.018-.332.024-.504.127-.985.96-1.75 1.975-1.75a2.01 2.01 0 0 1 1.998 2.011.43.43 0 0 0 .434.427.43.43 0 0 0 .435-.427c0-1.11.893-2.01 1.998-2.01 1.099 0 1.998.9 1.998 2.01a.43.43 0 0 0 .435.427.43.43 0 0 0 .435-.427c0-1.11.893-2.01 1.998-2.01s1.998.9 1.998 2.01a.43.43 0 0 0 .435.427.43.43 0 0 0 .434-.427c0-1.11.894-2.01 1.999-2.01 1.104 0 1.998.9 1.998 2.01a.43.43 0 0 0 .434.427.43.43 0 0 0 .435-.427c0-1.11.894-2.01 1.998-2.01a1.99 1.99 0 0 1 1.968 1.75c.006.165.025.331.025.503a.43.43 0 0 0 .434.427.43.43 0 0 0 .435-.427c0-.065-.012-.13-.012-.195.024-.018.03-.036.03-.054Zm-9.864-7.7-3.918 2.8a.436.436 0 0 1-.26.084c-.024 0-.054 0-.078-.006-.03-.006-.06-.012-.09-.024-.025-.006-.043-.018-.067-.03-.006 0-.012-.006-.018-.012a.216.216 0 0 1-.06-.047.283.283 0 0 1-.055-.065L9.75 5.588a.424.424 0 0 1 .12-.593.442.442 0 0 1 .471-.012c.006.006.012.012.024.012.012.011.03.017.043.03l.018.017a.62.62 0 0 1 .054.065l.797 1.18 3.55-2.538a.43.43 0 0 1 .356-.071c.018.006.03.006.048.012.006 0 .018.005.024.011a.36.36 0 0 1 .145.101l.018.018c.006.006.012.012.018.024a.411.411 0 0 1-.09.599Zm1.605 19.078a.43.43 0 0 0-.434.427c0 .938-.779 1.703-1.733 1.703-.954 0-1.732-.765-1.732-1.703v-10.32a.43.43 0 0 0-.435-.428.43.43 0 0 0-.435.427v10.321c0 1.412 1.171 2.563 2.608 2.563s2.608-1.15 2.608-2.563a.452.452 0 0 0-.447-.427Z"/></svg>