<svg xmlns="http://www.w3.org/2000/svg" width="80" height="18" fill="none"><g clip-path="url(#a)"><path fill="url(#b)" d="M7.848 4.742v3.264H6.444c-1.003 0-1.738.306-2.206.918-.468.611-.702 1.444-.702 2.498v6.425H0V4.742h3.21l.326 1.963c.384-.646.86-1.13 1.429-1.453.568-.34 1.329-.51 2.282-.51h.601Z"/><path fill="url(#c)" d="M7.507 11.32c0-1.36.267-2.541.802-3.544.552-1.02 1.312-1.801 2.282-2.345.986-.561 2.123-.842 3.41-.842 1.304 0 2.45.264 3.435.79a5.529 5.529 0 0 1 2.332 2.193c.569.935.861 2.04.878 3.315 0 .459-.033.867-.1 1.223h-9.353v.103c.083.951.384 1.7.902 2.243.519.544 1.23.816 2.132.816.719 0 1.312-.153 1.78-.459.485-.323.803-.79.953-1.402h3.485a5.202 5.202 0 0 1-.977 2.345c-.519.697-1.204 1.25-2.057 1.658-.852.39-1.83.586-2.933.586-1.438 0-2.683-.272-3.736-.816a5.808 5.808 0 0 1-2.408-2.32c-.551-1.02-.827-2.201-.827-3.544Zm9.603-1.555c-.116-.799-.442-1.41-.977-1.836-.519-.442-1.179-.663-1.981-.663-.77 0-1.421.23-1.956.689-.518.442-.828 1.045-.928 1.81h5.842Z"/><path fill="url(#d)" d="M24.36 13.487c.051.578.327 1.046.828 1.402.502.357 1.145.536 1.931.536.752 0 1.346-.12 1.78-.357.435-.255.652-.612.652-1.07 0-.34-.1-.596-.3-.766-.201-.17-.485-.289-.853-.357-.368-.085-.97-.178-1.805-.28-1.137-.153-2.082-.349-2.834-.587-.752-.237-1.354-.611-1.805-1.121-.452-.51-.677-1.19-.677-2.04 0-.85.225-1.598.677-2.244.468-.662 1.12-1.172 1.956-1.53.835-.356 1.796-.535 2.883-.535 1.755.017 3.168.4 4.238 1.148 1.086.747 1.671 1.784 1.755 3.11h-3.36c-.05-.493-.31-.892-.777-1.198-.452-.323-1.037-.485-1.756-.485-.668 0-1.212.128-1.63.383-.4.255-.601.595-.601 1.02 0 .306.108.535.326.688.217.153.501.263.852.331s.936.145 1.756.23c1.738.204 3.067.586 3.986 1.147.937.544 1.405 1.487 1.405 2.83 0 .85-.251 1.598-.753 2.244-.484.646-1.17 1.147-2.056 1.504-.869.34-1.88.51-3.034.51-1.788 0-3.243-.4-4.363-1.198-1.12-.816-1.713-1.921-1.78-3.315h3.36Z"/><path fill="url(#e)" d="M46.403 12.875c-.234 1.598-.903 2.856-2.006 3.774-1.087.9-2.5 1.351-4.238 1.351-1.337 0-2.508-.272-3.51-.816a5.848 5.848 0 0 1-2.332-2.371c-.535-1.02-.803-2.193-.803-3.518 0-1.343.268-2.516.803-3.519a5.684 5.684 0 0 1 2.331-2.345c1.02-.561 2.199-.842 3.536-.842 1.722 0 3.126.45 4.213 1.352 1.086.883 1.755 2.116 2.006 3.696h-3.661c-.15-.646-.452-1.155-.903-1.53-.451-.39-1.011-.586-1.68-.586-.92 0-1.655.349-2.207 1.046-.551.696-.827 1.606-.827 2.728 0 1.121.276 2.03.827 2.728.552.697 1.288 1.045 2.207 1.045.685 0 1.254-.195 1.705-.586.468-.391.77-.927.903-1.607h3.636Z"/><path fill="url(#f)" d="M60.001 14.813v3.034h-1.805c-1.622 0-2.416-.714-2.382-2.142-.468.748-1.045 1.318-1.73 1.709-.686.39-1.513.586-2.483.586-1.438 0-2.6-.331-3.485-.994-.87-.68-1.304-1.632-1.304-2.856 0-1.394.501-2.464 1.504-3.212 1.02-.765 2.491-1.148 4.413-1.148h2.558v-.637c0-.595-.217-1.062-.652-1.402-.434-.357-1.02-.536-1.755-.536-.652 0-1.187.145-1.605.434-.418.289-.669.68-.752 1.173h-3.41c.117-1.343.702-2.38 1.755-3.11 1.053-.749 2.449-1.123 4.187-1.123 1.822 0 3.227.408 4.213 1.224 1.003.816 1.504 1.997 1.504 3.544v4.615c0 .323.067.544.201.663s.343.178.627.178h.4Zm-4.714-2.626h-2.583c-.735 0-1.312.153-1.73.459-.401.289-.602.705-.602 1.25 0 .458.167.823.502 1.095.35.273.819.408 1.404.408.92 0 1.647-.263 2.182-.79.535-.544.81-1.266.827-2.167v-.255Z"/><path fill="url(#g)" d="M60.366 0H63.9v17.847h-3.535V0Z"/><path fill="url(#h)" d="M64.86 11.32c0-1.36.268-2.541.803-3.544.552-1.02 1.312-1.801 2.282-2.345.986-.561 2.123-.842 3.41-.842 1.304 0 2.45.264 3.435.79a5.53 5.53 0 0 1 2.332 2.193c.569.935.861 2.04.878 3.315 0 .459-.033.867-.1 1.223h-9.353v.103c.083.951.384 1.7.903 2.243.518.544 1.228.816 2.13.816.72 0 1.313-.153 1.781-.459.485-.323.802-.79.953-1.402h3.485a5.201 5.201 0 0 1-.978 2.345c-.518.697-1.203 1.25-2.056 1.658-.852.39-1.83.586-2.933.586-1.438 0-2.683-.272-3.737-.816a5.809 5.809 0 0 1-2.407-2.32c-.551-1.02-.827-2.201-.827-3.544Zm9.604-1.555c-.117-.799-.443-1.41-.977-1.836-.519-.442-1.179-.663-1.981-.663-.77 0-1.421.23-1.956.689-.519.442-.828 1.045-.928 1.81h5.842Z"/><path fill="#7584D6" fill-rule="evenodd" d="M77.5 4.688a2.188 2.188 0 1 0 0-4.376 2.188 2.188 0 0 0 0 4.375Zm0 .312a2.5 2.5 0 1 0 0-5 2.5 2.5 0 0 0 0 5Z" clip-rule="evenodd"/><path fill="#7584D6" d="M77.597 1.25c.183 0 .343.035.48.105a.738.738 0 0 1 .32.292.815.815 0 0 1 .115.44.786.786 0 0 1-.138.46.745.745 0 0 1-.371.282l.555 1.046h-.48l-.5-.953h-.584v.953h-.431V1.25h1.034Zm-.603 1.297h.57a.523.523 0 0 0 .367-.123.436.436 0 0 0 .139-.338.425.425 0 0 0-.139-.333.514.514 0 0 0-.367-.128h-.57v.922Z"/></g><defs><linearGradient id="b" x1="6.783" x2="19.763" y1="3.214" y2="10.251" gradientUnits="userSpaceOnUse"><stop stop-color="#80E5FF"/><stop offset="1" stop-color="#7584D6"/></linearGradient><linearGradient id="c" x1="6.783" x2="19.763" y1="3.214" y2="10.251" gradientUnits="userSpaceOnUse"><stop stop-color="#80E5FF"/><stop offset="1" stop-color="#7584D6"/></linearGradient><linearGradient id="d" x1="6.783" x2="19.763" y1="3.214" y2="10.251" gradientUnits="userSpaceOnUse"><stop stop-color="#80E5FF"/><stop offset="1" stop-color="#7584D6"/></linearGradient><linearGradient id="e" x1="6.783" x2="19.763" y1="3.214" y2="10.251" gradientUnits="userSpaceOnUse"><stop stop-color="#80E5FF"/><stop offset="1" stop-color="#7584D6"/></linearGradient><linearGradient id="f" x1="6.783" x2="19.763" y1="3.214" y2="10.251" gradientUnits="userSpaceOnUse"><stop stop-color="#80E5FF"/><stop offset="1" stop-color="#7584D6"/></linearGradient><linearGradient id="g" x1="6.783" x2="19.763" y1="3.214" y2="10.251" gradientUnits="userSpaceOnUse"><stop stop-color="#80E5FF"/><stop offset="1" stop-color="#7584D6"/></linearGradient><linearGradient id="h" x1="6.783" x2="19.763" y1="3.214" y2="10.251" gradientUnits="userSpaceOnUse"><stop stop-color="#80E5FF"/><stop offset="1" stop-color="#7584D6"/></linearGradient><clipPath id="a"><path fill="#fff" d="M0 0h80v18H0z"/></clipPath></defs></svg>