<svg xmlns="http://www.w3.org/2000/svg" width="28" height="22" fill="none"><path fill="#FCB400" d="M12.503.278 2.063 4.335a.643.643 0 0 0 .01 1.217l10.483 3.905a4.124 4.124 0 0 0 2.868 0l10.483-3.905a.643.643 0 0 0 .01-1.217L15.476.278a4.122 4.122 0 0 0-2.974 0Z"/><path fill="#18BFFF" d="M14.92 11.589v9.754c0 .463.498.781.957.61l11.681-4.258a.693.693 0 0 0 .321-.242.63.63 0 0 0 .121-.369V7.33c0-.463-.498-.781-.957-.61l-11.681 4.258a.694.694 0 0 0-.32.242.629.629 0 0 0-.122.369Z"/><path fill="#F82B60" d="m12.193 12.093-3.467 1.572-.352.16-7.318 3.293C.592 17.328 0 17.011 0 16.527V7.372c0-.175.096-.326.224-.44A.793.793 0 0 1 .4 6.808a.788.788 0 0 1 .636-.047l11.097 4.13c.564.21.609.953.059 1.202Z"/><path fill="#000" fill-opacity=".25" d="m12.193 12.093-3.467 1.572L.224 6.932A.793.793 0 0 1 .4 6.808a.788.788 0 0 1 .636-.047l11.097 4.13c.564.21.609.953.059 1.202Z"/></svg>