<svg xmlns="http://www.w3.org/2000/svg" width="28" height="28" fill="none"><mask id="a" width="27" height="19" x="0" y="4" maskUnits="userSpaceOnUse" style="mask-type:luminance"><path fill="#fff" d="M.886 4.47h25.947v18.126H.886V4.47Z"/></mask><g mask="url(#a)"><path fill="#00A1E0" fill-rule="evenodd" d="M11.66 6.454a4.55 4.55 0 0 1 3.291-1.412c1.717 0 3.205.954 4.007 2.375a5.533 5.533 0 0 1 2.26-.481c3.091 0 5.6 2.528 5.6 5.647 0 3.12-2.509 5.647-5.6 5.647-.377 0-.746-.038-1.106-.11a4.098 4.098 0 0 1-3.568 2.1 4.075 4.075 0 0 1-1.793-.413 4.669 4.669 0 0 1-4.293 2.843 4.662 4.662 0 0 1-4.379-3.053 4.303 4.303 0 0 1-.89.093c-2.395 0-4.332-1.965-4.332-4.379a4.4 4.4 0 0 1 2.166-3.796 5.04 5.04 0 0 1 4.631-7.04c1.631 0 3.091.777 4.007 1.984" clip-rule="evenodd"/></g><path fill="#FFFFFE" fill-rule="evenodd" d="M4.639 13.896c-.017.043.006.052.01.06.05.035.099.06.149.089.265.14.515.181.776.181.532 0 .863-.283.863-.74v-.008c0-.422-.373-.575-.723-.685l-.045-.015c-.265-.085-.493-.16-.493-.334v-.009c0-.148.134-.258.34-.258.229 0 .502.076.676.173 0 0 .052.033.07-.017l.11-.292c.01-.028-.008-.049-.026-.06a1.507 1.507 0 0 0-.763-.205H5.53c-.488 0-.829.295-.829.717v.009c0 .444.376.59.727.69l.057.017c.256.079.477.147.477.326v.01c0 .164-.144.287-.375.287-.09 0-.376-.001-.686-.197l-.088-.055c-.015-.01-.053-.026-.07.024l-.105.292m7.794 0c-.016.042.006.051.011.059.049.035.099.06.148.09.265.14.515.18.777.18.532 0 .863-.283.863-.739v-.009c0-.421-.373-.575-.723-.685l-.046-.015c-.264-.085-.492-.16-.492-.333v-.01c0-.148.134-.258.34-.258.229 0 .5.076.676.173 0 0 .052.033.07-.017.01-.027.1-.265.108-.292.01-.028-.007-.049-.025-.06a1.507 1.507 0 0 0-.763-.205h-.054c-.487 0-.828.295-.828.717v.01c0 .444.376.589.727.689l.056.017c.257.079.478.147.478.327v.008c0 .166-.145.289-.375.289-.09 0-.377-.002-.686-.198-.038-.022-.06-.037-.088-.055-.01-.006-.055-.024-.07.024l-.105.292m5.323-.893c0 .257-.048.46-.142.605-.094.142-.236.212-.433.212-.198 0-.339-.07-.431-.211-.094-.143-.14-.348-.14-.605 0-.258.047-.46.14-.602.092-.141.232-.209.43-.209.2 0 .34.069.434.209.095.142.142.344.142.602m.445-.478a1.073 1.073 0 0 0-.203-.386.967.967 0 0 0-.341-.26 1.118 1.118 0 0 0-.477-.095c-.181 0-.34.032-.477.095a.98.98 0 0 0-.544.646 1.685 1.685 0 0 0-.065.478c0 .17.022.331.065.478.044.148.112.277.202.386a.959.959 0 0 0 .342.258c.136.062.296.093.477.093.18 0 .34-.031.476-.093a.958.958 0 0 0 .341-.258c.09-.109.159-.238.203-.386a1.7 1.7 0 0 0 .065-.478c0-.17-.022-.331-.065-.478m3.653 1.221c-.014-.043-.056-.027-.056-.027a1.018 1.018 0 0 1-.208.06 1.59 1.59 0 0 1-.243.017c-.214 0-.386-.064-.508-.191-.123-.127-.192-.331-.191-.608 0-.252.061-.44.17-.585.108-.144.274-.218.494-.218.183 0 .323.021.47.067 0 0 .035.015.052-.03l.11-.304c.011-.034-.018-.048-.028-.052a1.74 1.74 0 0 0-.63-.097 1.2 1.2 0 0 0-.496.095 1.024 1.024 0 0 0-.574.646 1.535 1.535 0 0 0-.073.479c0 .368.1.666.296.885.197.22.492.33.878.33.228 0 .461-.046.63-.113 0 0 .031-.015.017-.053l-.11-.3m.778-.993a.867.867 0 0 1 .122-.355.479.479 0 0 1 .43-.218c.198 0 .329.077.422.218.062.093.09.217.1.355h-1.079.005Zm1.498-.315a.945.945 0 0 0-.193-.352.881.881 0 0 0-.286-.217 1.097 1.097 0 0 0-.431-.088c-.188 0-.359.032-.497.097a.991.991 0 0 0-.347.264c-.091.11-.16.241-.204.39a1.69 1.69 0 0 0-.066.48c0 .174.023.336.069.482a.986.986 0 0 0 .218.382c.1.108.226.192.379.25.151.06.335.09.546.09.435-.002.664-.099.758-.151.016-.01.032-.026.012-.072l-.098-.276c-.015-.041-.056-.026-.056-.026-.108.04-.26.112-.619.111-.233 0-.406-.069-.515-.177-.11-.11-.166-.272-.174-.5h1.507s.04 0 .044-.039c.001-.016.051-.309-.045-.648h-.002Zm-13.546.315a.868.868 0 0 1 .122-.355.479.479 0 0 1 .43-.218c.198 0 .328.077.422.218a.739.739 0 0 1 .099.355h-1.078.005Zm1.497-.315a.943.943 0 0 0-.192-.352.881.881 0 0 0-.286-.217 1.097 1.097 0 0 0-.432-.088c-.188 0-.358.032-.497.097a.991.991 0 0 0-.346.264 1.09 1.09 0 0 0-.204.39c-.044.149-.066.31-.066.48 0 .174.023.336.068.482.046.146.12.275.218.382.1.108.226.192.379.25.151.06.334.09.546.09.435-.002.664-.099.758-.151.016-.01.032-.026.012-.072l-.098-.276c-.015-.041-.057-.026-.057-.026-.107.04-.26.112-.618.111-.233 0-.406-.069-.515-.177-.11-.11-.166-.272-.175-.5h1.508s.04 0 .043-.039c.002-.016.052-.309-.045-.648Zm-4.75 1.297a.293.293 0 0 1-.087-.089.36.36 0 0 1-.045-.195c0-.132.044-.227.134-.291 0 0 .13-.113.437-.109.137.002.273.014.408.035v.684s-.19.04-.406.054c-.306.018-.441-.088-.44-.088h-.001Zm.599-1.058a3.404 3.404 0 0 0-.235-.007 1.42 1.42 0 0 0-.37.048.964.964 0 0 0-.314.145.729.729 0 0 0-.218.248.725.725 0 0 0-.08.348.78.78 0 0 0 .068.343.623.623 0 0 0 .197.236c.083.06.187.106.306.132a1.8 1.8 0 0 0 .399.041c.154 0 .308-.013.457-.038.126-.022.253-.046.378-.074.05-.011.106-.026.106-.026.037-.01.035-.05.035-.05l-.001-1.373c0-.302-.08-.526-.24-.664-.158-.139-.39-.208-.69-.208-.113 0-.295.015-.404.037 0 0-.328.064-.464.17 0 0-.03.018-.013.06l.107.286c.013.037.05.024.05.024l.024-.012c.289-.158.655-.153.655-.153.162 0 .288.033.372.097.082.063.124.159.124.359v.064a4.037 4.037 0 0 0-.248-.03l-.001-.003Zm12.115-.776a.042.042 0 0 0 0-.032.04.04 0 0 0-.023-.022 1.328 1.328 0 0 0-.252-.043.746.746 0 0 0-.388.062.668.668 0 0 0-.254.188v-.183c0-.025-.017-.045-.043-.045h-.385c-.025 0-.043.02-.043.045v2.242a.046.046 0 0 0 .045.046h.395a.046.046 0 0 0 .046-.046v-1.126c0-.15.016-.3.05-.395a.565.565 0 0 1 .131-.22.456.456 0 0 1 .186-.112.732.732 0 0 1 .367-.009c.03.003.046-.014.055-.04l.114-.316" clip-rule="evenodd"/><path fill="#FFFFFE" fill-rule="evenodd" d="M16.353 10.866a1.245 1.245 0 0 0-.353-.051c-.272 0-.487.076-.637.228-.15.151-.252.38-.303.683l-.018.102H14.7s-.041-.002-.05.043l-.056.313c-.004.03.009.049.049.049h.332l-.337 1.883a2.358 2.358 0 0 1-.09.371.76.76 0 0 1-.105.214.28.28 0 0 1-.138.107.56.56 0 0 1-.298.012.312.312 0 0 1-.08-.027s-.04-.014-.055.025c-.013.032-.101.275-.112.306-.01.03.005.053.023.06a.911.911 0 0 0 .358.061c.139 0 .265-.02.37-.058a.69.69 0 0 0 .278-.194.997.997 0 0 0 .195-.336 2.87 2.87 0 0 0 .133-.506l.339-1.918h.495s.042.001.05-.044l.057-.313c.004-.03-.009-.048-.05-.048h-.48c.002-.011.024-.18.08-.34a.438.438 0 0 1 .105-.16.314.314 0 0 1 .126-.079.627.627 0 0 1 .362.008c.049.015.055 0 .065-.023l.115-.316c.012-.034-.017-.048-.028-.052ZM9.631 14.12c0 .025-.018.046-.044.046h-.399c-.025 0-.043-.02-.043-.046v-3.21c0-.026.018-.046.043-.046h.4c.025 0 .043.02.043.046v3.211Z" clip-rule="evenodd"/></svg>