<svg xmlns="http://www.w3.org/2000/svg" width="395" height="75" fill="none"><path fill="#1E2B3A" d="M5.238 15.578v1.04c0 .732-.593 1.326-1.325 1.326H1.325c-.732 0-1.325.593-1.325 1.324v5.049c0 .731.593 1.325 1.325 1.325h2.588c.732 0 1.325.593 1.325 1.324v31.48c0 .732.593 1.325 1.325 1.325h7.442c.731 0 1.325-.593 1.325-1.325v-31.49c0-.731.593-1.325 1.325-1.325h4.047c.732 0 1.325-.593 1.325-1.324v-5.049c0-.731-.593-1.325-1.325-1.325h-4.047a1.325 1.325 0 0 1-1.325-1.324v-.73c0-4.923 2.928-5.713 5.373-5.84.73-.038 1.324-.617 1.324-1.349V1.517c0-.732-.593-1.328-1.324-1.297C13.076.546 5.238 3.84 5.238 15.578zm39.873 11.117c0 .002 0 .003-.002.002l-.001-.001v-8.704c0-.738-.606-1.34-1.342-1.28-3.438.28-5.938 1.465-7.75 3.149-.804.748-2.61.22-2.61-.879a1.04 1.04 0 0 0-1.04-1.038h-7.18c-.732 0-1.325.593-1.325 1.324v39.168c0 .732.593 1.325 1.325 1.325h7.441c.732 0 1.325-.593 1.325-1.325V37.21c0-7.237 3.617-10.515 10.7-10.515h.457l.002.001z"/><path fill="#1E2B3A" d="M78.391 19.19c0 1.29-2.124 1.995-3.119 1.175-2.508-2.064-6.205-3.714-11.126-3.714-11.855 0-21.48 8.99-21.48 22.171 0 11.808 7.933 22.242 21.48 22.242 4.196 0 8.24-1.22 11.2-3.666.983-.811 3.045-.143 3.045 1.13 0 .681.552 1.233 1.233 1.233h7.534c.732 0 1.325-.593 1.325-1.325V19.268c0-.731-.593-1.325-1.325-1.325h-7.52c-.689 0-1.247.559-1.247 1.247zm-1.54 25.862a.085.085 0 0 1-.006.017c-1.927 3.803-5.623 6.693-11.24 6.693-9.089 0-12.858-7.537-12.858-12.72v-.08c0-6.475 4.62-13.03 12.787-13.03 6.08 0 10.01 3.428 11.783 7.387.852 1.825 1.237 3.89 1.155 5.864-.151 2.05-.615 4.03-1.613 5.85a.077.077 0 0 0-.008.019zm66.405-28.402c-4.468 0-8.166 1.674-10.78 4.11a14.893 14.893 0 0 0-1.75 1.95c-.629.835-1.976.804-2.553-.067-.428-.645-.892-1.271-1.32-1.733-3.081-3.277-6.931-4.27-10.396-4.27-4.304 0-7.49 1.61-9.57 3.324-.804.662-2.75 0-2.75-1.04a.98.98 0 0 0-.98-.98h-7.169c-.732 0-1.325.593-1.325 1.324v39.168c0 .732.593 1.325 1.325 1.325h7.442c.731 0 1.325-.593 1.325-1.325V37.138c0-2.435.385-5.031 1.621-7.237 1.236-2.135 3.546-3.889 7.234-3.889 3.617.08 5.694 1.674 6.93 3.89 1.074 2.134 1.307 4.49 1.307 6.936v21.608c0 .732.593 1.325 1.325 1.325h7.442c.732 0 1.325-.593 1.325-1.325V36.838c0-2.516.152-4.721 1.459-7.007 1.307-2.285 3.769-3.809 7.315-3.809 3.546 0 5.542 1.374 6.626 3.428 1.459 2.206 1.692 5.102 1.692 7.768v21.228c0 .732.594 1.325 1.325 1.325h7.442c.732 0 1.325-.593 1.325-1.325V36.838c0-8.61-.77-12.039-4.62-15.998-3.232-3.277-7.701-4.19-11.247-4.19zm41.258-.005a.017.017 0 0 1-.012.006c-12.781.006-22.167 10.438-22.167 22.322 0 11.887 9.321 22.091 22.331 22.091 4.387 0 8.551-1.223 12.087-3.658 3.068-2.047 5.726-4.941 7.687-8.696.441-.844-.197-1.819-1.15-1.819h-7.605c-.479 0-.916.262-1.176.664-1.97 3.046-5.164 4.97-9.762 4.97-5.358.074-10.917-3.139-12.056-8.958-.147-.753.467-1.407 1.234-1.407h31.436c.672 0 1.242-.504 1.293-1.175.521-6.843-1.465-12.97-6.355-17.95-3.928-4.036-9.466-6.392-15.773-6.395a.016.016 0 0 0-.012.005zm-10.4 17.907c-.78 0-1.396-.675-1.184-1.426 1.078-3.817 5.039-8.016 11.665-8.016 6.54-.07 10.609 4.27 11.729 8.014.224.75-.39 1.428-1.173 1.428h-21.037zm45.733-11.142c-.002.003-.005.005-.008.004a.007.007 0 0 1-.005-.006v-4.14c0-.731-.593-1.325-1.325-1.325h-6.895c-.731 0-1.324.594-1.324 1.325v39.168c0 .732.593 1.325 1.324 1.325h7.442c.732 0 1.325-.593 1.325-1.325V37.21c0-7.237 3.617-10.515 10.699-10.515a.466.466 0 0 0 .467-.466v-8.246c0-.738-.606-1.34-1.342-1.28-5.541.451-8.647 3.252-10.358 6.709zm38.377-6.76c-5.171 0-9.207 1.74-12.172 4.334-.97.848-2.763.215-2.763-1.073v-1.936c0-.731-.593-1.325-1.324-1.325h-6.824c-.732 0-1.325.594-1.325 1.325V73.07c0 .732.593 1.325 1.325 1.325h7.442c.731 0 1.325-.593 1.325-1.325V58.768c0-1.326 2.046-2.053 3.096-1.243 2.446 1.889 6.131 3.54 11.301 3.54 12.402 0 20.943-9.984 20.943-21.862 0-10.134-6.241-22.553-21.024-22.553zm10.932 22.242c0 6.856-5.157 12.87-12.857 12.87-3.617 0-6.849-1.443-9.159-3.728-2.31-2.286-3.699-5.483-3.699-9.061 0-3.579 1.389-6.937 3.618-9.222 2.31-2.365 5.471-3.809 9.159-3.809 8.551 0 12.938 6.856 12.938 12.87v.08zM386.047 3.39c-.732 0-1.325.593-1.325 1.324v14.058c0 1.327-2.085 2.086-3.148 1.29-2.417-1.809-6.047-3.422-11.017-3.422-11.469 0-21.256 8.61-21.256 22.172 0 12.189 8.389 22.242 21.408 22.242 5.469 0 9.08-1.685 11.462-3.716 1.001-.854 3.017-.197 3.017 1.12 0 .714.579 1.293 1.294 1.293h7.007c.731 0 1.325-.593 1.325-1.325V4.714c0-.731-.594-1.324-1.325-1.324h-7.442zm-4.329 44.493c.001.003 0 .005-.001.007-2.391 2.361-5.692 3.802-9.386 3.802-7.782 0-12.939-5.793-12.939-12.87v-.08c0-6.555 4.772-12.8 13.009-12.8 3.618 0 6.85 1.373 9.16 3.659 2.31 2.205 3.769 5.332 3.769 8.99.152 3.656-1.234 6.931-3.611 9.286-.002.002-.002.004-.001.006zM325.956 33.95h-23.293c-2.746 0-4.975 2.206-4.975 4.922 0 2.717 2.229 4.922 4.975 4.922h23.293c2.746 0 4.975-2.205 4.975-4.922 0-2.716-2.229-4.921-4.975-4.921z"/><path fill="#1E2B3A" d="M327.461 16.826a.009.009 0 0 0-.008-.006c-.725-.05-1.448-.06-3.503-.06h-19.281c-2.057 0-2.786 0-3.516.061-10.091.772-17.984 8.58-18.764 18.553-.061.742-.061 1.474-.061 3.488 0 2.015 0 2.757.061 3.479.78 9.983 8.673 17.791 18.754 18.563.74.06 1.479.06 3.516.06h19.281c2.037 0 2.776 0 3.516-.06 10.091-.772 17.984-8.58 18.764-18.553.061-.732.061-1.464.061-3.478 0-2.015 0-2.747-.061-3.479-.779-9.979-8.656-17.784-18.751-18.562a.008.008 0 0 1-.008-.006zm8.85 24.763c-.395 5.112-4.438 9.111-9.615 9.502-.355.03-1.074.03-2.746.03h-19.281c-1.672 0-2.391 0-2.756-.03-5.167-.39-9.21-4.39-9.615-9.522-.031-.351-.031-1.063-.031-2.717 0-1.653 0-2.365.031-2.726.395-5.112 4.438-9.111 9.605-9.502.375-.03 1.125-.03 2.756-.03h19.281c1.631 0 2.381 0 2.756.03 5.167.39 9.21 4.39 9.615 9.512.031.36.031 1.063.031 2.726 0 1.664 0 2.366-.031 2.727z"/></svg>