<svg xmlns="http://www.w3.org/2000/svg" width="21" height="9" fill="none"><path fill="#7584D6" d="M1.712 4.416c0 .006-.003.011-.008.016v-.016h.008ZM.576 2.776H.568L.6 2.424a.13.13 0 0 1 .032-.072.141.141 0 0 1 .064-.04.423.423 0 0 1 .2 0c.027.006.045.016.056.032.016.011.03.024.04.04.037.06.045.115.024.168l-.112.224c-.037.07-.077.142-.12.216-.021.022-.037.032-.048.032a.102.102 0 0 1-.096 0c-.043-.016-.064-.04-.064-.072v-.176Zm1.088 1.696h-.008l.008-.008c.005-.005.01-.008.016-.008.005 0 .01-.005.016-.016.005 0 .008-.002.008-.008v.016l-.04.024Zm.464-.832c.005-.005.01-.005.016 0 .005.006.008.011.008.016l-.016.104a.183.183 0 0 1-.032.072c-.01.011-.019.014-.024.008-.043-.02-.075-.02-.096 0l-.04.064-.376.512-.048.08a.111.111 0 0 0-.008.048.09.09 0 0 0 .04-.008.312.312 0 0 0 .04-.016.125.125 0 0 1 .032-.024.126.126 0 0 0 .032-.024.061.061 0 0 0-.008.024c0 .006-.003.011-.008.016a1.31 1.31 0 0 0-.08.088.493.493 0 0 0-.056.088.509.509 0 0 0-.096.088.413.413 0 0 1-.08.088l-.096.104a.186.186 0 0 1-.08.04.73.73 0 0 0-.12.032.55.55 0 0 1-.184.016L.784 5.04a.197.197 0 0 1-.072-.016.972.972 0 0 1-.144-.08.377.377 0 0 1-.104-.12.392.392 0 0 1-.024-.04l-.016-.048a.732.732 0 0 1-.04-.232 5.19 5.19 0 0 1-.008-.288c.005-.1.016-.202.032-.304a2.36 2.36 0 0 0 .024-.192l.032-.208a.208.208 0 0 0 .008-.064.214.214 0 0 1 .072-.08.29.29 0 0 1 .224-.024.19.19 0 0 1 .112.056.077.077 0 0 1 .024.056.235.235 0 0 0-.008.056.129.129 0 0 1-.016.056l-.016.08a.568.568 0 0 1-.024.072l-.032.088a2.12 2.12 0 0 0-.04.256 2.189 2.189 0 0 0-.04.52c0 .07.013.14.04.208.027.048.053.07.08.064.01 0 .027-.005.048-.016a.273.273 0 0 0 .112-.056.828.828 0 0 1 .136-.088.616.616 0 0 0 .136-.104c.096-.096.184-.194.264-.296.085-.1.168-.205.248-.312l.216-.28a.078.078 0 0 1 .048-.032.949.949 0 0 1 .072-.032Zm-1.632.856H.488v.008l.008-.008Zm0-.312c-.005.006-.008.011-.008.016 0 .011.003.011.008 0v-.016Zm.984.384c.016 0 .024-.008.024-.024l-.024.024Z"/><path fill="#7584D6" d="M4.421 3.688c.016.006.019.014.008.024a1.315 1.315 0 0 0-.08.088.286.286 0 0 1-.08.08.125.125 0 0 0-.024.032.125.125 0 0 1-.024.032.188.188 0 0 1-.04.064.317.317 0 0 1-.04.048c-.08.075-.163.15-.248.224-.085.07-.173.14-.264.208a.351.351 0 0 1-.072.04 1.18 1.18 0 0 1-.128.04 1.871 1.871 0 0 0-.12.04.22.22 0 0 1-.112.016.952.952 0 0 1-.104-.024.094.094 0 0 1-.024-.016.093.093 0 0 0-.024-.016.525.525 0 0 1-.056-.032.12.12 0 0 0-.048-.04.307.307 0 0 1-.144-.16.626.626 0 0 1-.048-.128 5.316 5.316 0 0 0-.04-.176.089.089 0 0 0-.008-.04c-.01-.026-.024-.032-.04-.016a1.847 1.847 0 0 0-.104.096.629.629 0 0 0-.088.112l-.032.048a2.349 2.349 0 0 1-.288.432.825.825 0 0 1-.088.104c-.016.027-.04.035-.072.024a.438.438 0 0 0-.056-.024.218.218 0 0 1-.104-.056 5.673 5.673 0 0 0-.072-.088.119.119 0 0 1-.032-.056 1.567 1.567 0 0 1-.016-.072v-.168l.016-.16a1.304 1.304 0 0 0 .032-.28c0-.026.005-.066.016-.12a1.11 1.11 0 0 0 .024-.128 3.07 3.07 0 0 1 .032-.136l.024-.072c.021-.064.061-.088.12-.072a.641.641 0 0 1 .104.04.43.43 0 0 1 .096.048c.027.016.04.038.04.064a.54.54 0 0 1-.008.088.214.214 0 0 1-.016.08.178.178 0 0 0-.024.056.151.151 0 0 1-.008.048 1.227 1.227 0 0 0-.064.2l-.032.192V4.2c.005 0 .008.003.008.008a.061.061 0 0 1 .024-.008c.005 0 .01-.002.016-.008a1114.54 1114.54 0 0 1 .224-.264c.085-.096.181-.184.288-.264a.56.56 0 0 1 .08-.04c.037-.016.07-.018.096-.008.021.016.056.02.104.008.027-.01.045.003.056.04a.582.582 0 0 1 .032.184v.144c.005.048.008.1.008.152.005.08.03.16.072.24.021.043.056.06.104.048l.064-.016a.313.313 0 0 0 .064-.024c.064-.042.125-.085.184-.128a2.34 2.34 0 0 0 .184-.136c.096-.08.205-.16.328-.24.01.016.027.035.048.056.01.022.024.027.04.016a.575.575 0 0 1 .088-.072l.096-.08.072-.056c.027-.02.053-.042.08-.064Zm-1.584.424c.01-.037.008-.066-.008-.088-.016.016-.019.043-.008.08 0 .006.003.011.008.016l.008-.008Zm1.728-.784-.008.008-.016.016v-.024l.008-.008c.005 0 .01-.002.016-.008v.016Zm-.032.024h.008l-.008.008v-.008Zm-.024.024c0-.01.008-.016.024-.016-.01.011-.019.016-.024.016Zm-.008.008.008-.008v.008c-.005 0-.008.003-.008.008v-.008Zm-.024.024c.01-.01.019-.016.024-.016-.01.011-.019.016-.024.016Zm-.016.016c.005 0 .008-.002.008-.008l.008-.008v.008c-.005.006-.01.008-.016.008 0 .006-.003.008-.008.008l.008-.008Zm-.024.016c.005 0 .01-.002.016-.008-.005.006-.008.011-.008.016l-.008-.008Zm-.032.032.032-.032.008.008a.093.093 0 0 0-.024.016l-.016.008Zm-.192.2.008-.016a.262.262 0 0 1 .04-.032l-.048.048Zm-.176.184a.093.093 0 0 0-.024.016c0 .006-.005.011-.016.016.005-.01.01-.016.016-.016a.093.093 0 0 0 .016-.024h.016l-.008.008Z"/><path fill="#7584D6" d="M7.081 1.944c-.005 0 0 .008.016.024v.016c-.01.011-.018.016-.024.016a.123.123 0 0 1-.048.016.263.263 0 0 0-.064.008.129.129 0 0 1-.056-.016A.161.161 0 0 0 6.817 2a.45.45 0 0 1-.088-.008.242.242 0 0 0-.072.008.214.214 0 0 1-.096.008A.285.285 0 0 0 6.41 2c-.037.011-.064.014-.08.008A.739.739 0 0 1 6.225 2a.29.29 0 0 0-.096 0l-.096.016a.244.244 0 0 1-.088 0 1.82 1.82 0 0 0-.168.008.428.428 0 0 0-.16.032c-.016 0-.018.008-.008.024l.008.008c.011 0 .02.003.024.008h.024a.406.406 0 0 1 .08-.008.407.407 0 0 0 .08-.008h.104a.792.792 0 0 0 .112-.008 3.686 3.686 0 0 0 .264-.024h.12c.043 0 .086.006.128.016.006 0 .014.006.024.016v.008c0 .006-.002.008-.008.008-.005 0-.01.003-.016.008h-.008a3.686 3.686 0 0 1-.28.04.737.737 0 0 0-.104.008.302.302 0 0 0-.096.016.28.28 0 0 1-.08.008.582.582 0 0 0-.096.008h-.088a.262.262 0 0 0-.064.016.23.23 0 0 1-.104.024.243.243 0 0 1-.072.008 2.1 2.1 0 0 1-.256.032 2 2 0 0 0-.248.016.673.673 0 0 0-.12.016c-.053.006-.088.038-.104.096 0 .011-.002.02-.008.024v.024l-.048.24c-.016.08-.029.16-.04.24a.312.312 0 0 0-.024.064.197.197 0 0 1-.016.072.286.286 0 0 1-.024.072l-.016.072a.606.606 0 0 1-.104.224.315.315 0 0 0-.064.16 1.856 1.856 0 0 0-.008.168.802.802 0 0 1 0 .16v.28a4.625 4.625 0 0 0 .016.384c.006.032.011.067.016.104a.84.84 0 0 1 .016.232.17.17 0 0 0 .008.088l.016.104a.839.839 0 0 0 .024.112c0 .027-.01.035-.032.024a.276.276 0 0 1-.08-.04H4.45c0 .006-.002.008-.008.008v.008a.904.904 0 0 0 .136.368h.008c.006.011.014.011.024 0h.008l-.008.008c.043.022.072.062.088.12.038.123.11.23.216.32a.28.28 0 0 0 .208.08c.027 0 .038.008.032.024 0 .006-.008.016-.024.032h-.04c0 .006-.002.008-.008.008a.071.071 0 0 1-.032-.008h-.032a.386.386 0 0 1-.272-.064.756.756 0 0 1-.28-.328l-.08-.128a1.174 1.174 0 0 0-.04-.088 1.174 1.174 0 0 0-.04-.088 1.036 1.036 0 0 1-.056-.136.708.708 0 0 1-.032-.16 2.763 2.763 0 0 1-.016-.088.457.457 0 0 0-.024-.08.839.839 0 0 1-.024-.112.841.841 0 0 0-.024-.112l-.016-.096a.738.738 0 0 1-.008-.104.583.583 0 0 0-.008-.096 47.841 47.841 0 0 1-.024-.328c0-.08.003-.157.008-.232v-.176c0-.144.011-.277.032-.4a.662.662 0 0 0 .016-.144c0-.048.003-.093.008-.136.016-.1.03-.202.04-.304l.048-.304c0-.026.003-.045.008-.056 0-.048-.02-.072-.064-.072h-.296a1.732 1.732 0 0 0-.288.008H3.57a1.528 1.528 0 0 0-.152-.008 1.376 1.376 0 0 0-.152-.008l-.048-.024a.198.198 0 0 1-.072-.192c.011-.037.03-.056.056-.056h.064a.177.177 0 0 1 .056-.008l.216.016h.44l.24-.016c.048 0 .075-.026.08-.08v-.016a12.686 12.686 0 0 1 .192-.912c.032-.133.072-.258.12-.376A.332.332 0 0 1 4.681.56c.032-.032.064-.048.096-.048h.024c.006-.005.011-.008.016-.008a.336.336 0 0 1 .16.008c.06.022.094.067.104.136v.048a.074.074 0 0 1 0 .048c-.01.06-.02.118-.032.176-.005.054-.013.11-.024.168-.01.054-.02.107-.032.16a4.212 4.212 0 0 0-.072.424 4.865 4.865 0 0 1-.024.264c0 .011.003.02.008.024 0 .032.014.048.04.048h.256l.208-.016h.152c.054 0 .107-.002.16-.008h.08c.102-.01.2-.016.296-.016.102 0 .2-.005.296-.016a.969.969 0 0 1 .12-.008.266.266 0 0 1 .112.008.266.266 0 0 1 .112-.008.791.791 0 0 0 .112.008.252.252 0 0 0 .112.008 6.82 6.82 0 0 1 .12-.016ZM4.273 4.816c-.005 0 0-.008.016-.024-.01-.026-.02-.034-.032-.024-.01 0-.016.008-.016.024 0 .027.011.035.032.024Zm.016-1.704h-.008v.008l.008-.008Zm.048.696c.016 0 .024-.005.024-.016.022-.032.024-.06.008-.088 0-.01-.008-.016-.024-.016l-.008.008a.123.123 0 0 0-.016.048v.04c0 .016.006.024.016.024Zm.016.304c0-.01-.002-.018-.008-.024h-.008v.024h.016Zm-.032.176c-.026.054-.026.102 0 .144 0 .006.008.008.024.008.006 0 .008-.005.008-.016.006-.005.008-.013.008-.024a.242.242 0 0 0-.016-.12H4.33l-.008.008Zm.064.296a.438.438 0 0 0-.024.056v.072c.006.006.011.006.016 0 .011-.01.016-.02.016-.032a.071.071 0 0 0-.008-.032v-.064Zm-.064.608a.152.152 0 0 0 .032.112.184.184 0 0 0-.008-.12h-.008c-.01 0-.016.003-.016.008Zm.08.264c.011.011.016.022.016.032v-.032c0-.02-.005-.026-.016-.016v.016Zm.048.08a.125.125 0 0 0-.024-.032v.032c.011.022.02.024.024.008v-.008Zm.008-.44a.296.296 0 0 0-.024-.152.522.522 0 0 1-.032-.056.272.272 0 0 0-.032-.072.37.37 0 0 0-.008.072c.006.032.011.067.016.104a.948.948 0 0 0 .024.104l.008.008c.016.016.024.02.024.008.016 0 .024-.005.024-.016Zm.096-2.64V2.4a.074.074 0 0 0 0-.048c0-.01-.008-.016-.024-.016-.02 0-.032.008-.032.024a.899.899 0 0 0-.064.32.85.85 0 0 1-.008.12l-.016.112a2.586 2.586 0 0 0-.048.304v.08a.197.197 0 0 1-.016.072.263.263 0 0 0-.016.08c0 .038.008.067.024.088.006 0 .008.003.008.008h.008c.011 0 .016-.005.016-.016a.583.583 0 0 0 .032-.184c0-.053.008-.104.024-.152.011-.058.02-.117.024-.176.011-.058.02-.117.024-.176l.016-.104a.631.631 0 0 1 .024-.096l.016-.088a.583.583 0 0 0 .008-.096Zm.112-.056a.036.036 0 0 0-.008.024c-.005.006-.002.011.008.016V2.4Zm-.056-.424.048-.128a.29.29 0 0 0 .016-.136V1.68a.071.071 0 0 0 .008-.032h-.016a.813.813 0 0 1-.024.088l-.016.048a.309.309 0 0 0-.016.04 1.58 1.58 0 0 1-.016.072.344.344 0 0 1-.008.064c0 .006.006.014.016.024l.008-.008Zm.144 0 .008-.008a.563.563 0 0 0 .032-.136c.006-.048.008-.096.008-.144a.386.386 0 0 0-.064.272c0 .011.006.016.016.016Zm.048-.304a.101.101 0 0 0 .008-.088.322.322 0 0 1-.008.088Zm.712.416c0-.01-.002-.016-.008-.016a.09.09 0 0 0-.064-.008.117.117 0 0 1-.072-.008c-.01-.01-.024-.01-.04 0a2.82 2.82 0 0 1-.088.016.214.214 0 0 0-.08.016l.008.016h.32c.006-.005.011-.008.016-.008l.008-.008Zm-.936 3.264c.006-.005.014-.002.024.008l.008.016a.091.091 0 0 1 .016.024v.016l-.016.016c-.042 0-.058-.02-.048-.064l.016-.016Zm2.28-3.296c.027-.01.072-.008.136.008a2.79 2.79 0 0 1-.136.032c-.005 0-.01-.002-.016-.008-.005-.005-.005-.008 0-.008 0-.016.006-.024.016-.024Zm-.12.016c.011 0 .016.003.016.008l-.008.008h-.008c-.01-.01-.01-.016 0-.016ZM4.61 5.584h-.024c0-.02.008-.04.024-.056v.056Zm.008-.056H4.61l.008-.008v.008Z"/><path fill="#7584D6" d="M7.124 3.824a.122.122 0 0 1 .08-.064.087.087 0 0 1-.024.064.892.892 0 0 0-.112.136.788.788 0 0 1-.112.12.143.143 0 0 0-.04.04.263.263 0 0 1-.032.04l-.032.048a1.124 1.124 0 0 0-.104.136.217.217 0 0 1-.096.064.188.188 0 0 0-.064.04.263.263 0 0 1-.04.032l-.032.032a.678.678 0 0 1-.12.096 1.826 1.826 0 0 0-.128.088c-.01.011-.01.02 0 .024.005 0 .008.003.008.008H6.3c.112-.042.219-.093.32-.152.101-.058.195-.133.28-.224a3.17 3.17 0 0 1 .136-.128c.048-.042.093-.085.136-.128.005-.005.01-.008.016-.008l.016-.016c0 .022-.005.038-.016.048l-.064.08-.064.08c-.059.07-.123.134-.192.192a4.33 4.33 0 0 1-.2.176.187.187 0 0 1-.048.032 2.374 2.374 0 0 0-.16.088.748.748 0 0 1-.16.08l-.032.016-.032.016a2.444 2.444 0 0 0-.12.064 2.816 2.816 0 0 1-.12.048.563.563 0 0 1-.136.032.328.328 0 0 1-.144 0 .263.263 0 0 0-.08-.016.442.442 0 0 1-.12-.032.246.246 0 0 1-.088-.08c-.005-.01-.01-.016-.016-.016a.093.093 0 0 1-.016-.024.472.472 0 0 1-.16-.328 1.169 1.169 0 0 1 .032-.432l.048-.176c.016-.064.037-.125.064-.184.016-.026.03-.029.04-.008.005.006.008.011.008.016l.008.008c0 .016-.003.027-.008.032l-.024.072a.904.904 0 0 0-.072.36l.008-.008a.442.442 0 0 0 .04-.088.493.493 0 0 1 .056-.088.054.054 0 0 0 .016-.04.15.15 0 0 1 .008-.048h-.008v-.04l.008.008c0-.026.005-.048.016-.064l.032-.064c.016-.032.03-.06.04-.088a.734.734 0 0 0 .04-.096H5.58v-.008l.008.008a.204.204 0 0 0 .048-.048 1.272 1.272 0 0 0 .08-.12v-.024H5.7c0-.005-.005-.008-.016-.008a.07.07 0 0 0-.032.008H5.62c0-.026.005-.045.016-.056a.46.46 0 0 1 .16-.16.446.446 0 0 1 .32-.064.44.44 0 0 0 .056.024.438.438 0 0 1 .056.024c.112.06.176.16.192.304a.45.45 0 0 1-.016.104 2.1 2.1 0 0 1-.24.408l-.04.04-.032.032a.523.523 0 0 1-.056.048.261.261 0 0 0-.04.032c-.048.048-.08.072-.096.072a.998.998 0 0 0-.104.016.363.363 0 0 1-.208-.024c-.032-.01-.053 0-.064.032a.807.807 0 0 0-.008.464v.016c.005 0 .008.006.008.016.021.032.045.051.072.056a.26.26 0 0 0 .128 0 .808.808 0 0 0 .24-.064 3.027 3.027 0 0 0 .8-.552l.144-.128.056-.056a.87.87 0 0 1 .072-.064l.048-.048a.214.214 0 0 0 .04-.056Zm-1.496.104c-.016.027-.013.04.008.04h.032a.578.578 0 0 0 .176-.128 2.24 2.24 0 0 0 .176-.2.6.6 0 0 0 .064-.112.22.22 0 0 0 .024-.128c0-.01-.003-.016-.008-.016v-.016c0-.032-.019-.042-.056-.032a.371.371 0 0 0-.072.056.877.877 0 0 1-.072.064.58.58 0 0 0-.144.2.404.404 0 0 1-.048.096 1.309 1.309 0 0 0-.048.088.309.309 0 0 0-.016.04l-.016.048Zm-.312.344c.005.006.008 0 .008-.016v-.024c0 .006-.003.011-.008.016v.008c-.01.011-.01.016 0 .016Zm2.024-.648c-.021.06-.053.091-.096.096.005-.053.035-.088.088-.104l.008.008Zm.264-.176c-.01.027-.027.043-.048.048 0-.02.008-.04.024-.056h.016l.008.008Zm-.336.568c-.005.006-.01.008-.016.008l-.008.008c.01-.01.019-.016.024-.016Zm-.024.024h-.008v-.008h.008v.008Zm-.04.032v-.008h.008l-.008.008Zm.032-.032c-.01.016-.019.024-.024.024l.024-.024Zm.04-.032c-.005 0-.008.003-.008.008v-.008c0-.005.003-.008.008-.008v.008Zm-.04-.288h.008l-.04.04v-.008l.032-.032Zm-1.72-.184a.048.048 0 0 1-.032.032.048.048 0 0 1 .032-.032l.008-.008c0 .006-.003.008-.008.008Z"/><path fill="#7584D6" d="m9.128 5.216.008.016c.01.011.005.016-.016.016h-.08a.407.407 0 0 1-.08.008.37.37 0 0 0-.072.008.945.945 0 0 0-.544.248.228.228 0 0 0-.072.136v.096c0 .08-.006.158-.016.232l-.016.232a.151.151 0 0 0-.008.048.151.151 0 0 1-.008.048.263.263 0 0 0-.016.08.982.982 0 0 1-.016.176l-.032.176a.208.208 0 0 1-.008.064 3.07 3.07 0 0 0-.032.136 2.226 2.226 0 0 1-.12.48 2.613 2.613 0 0 1-.088.216l-.08.224a2.565 2.565 0 0 1-.136.24c-.043.08-.091.158-.144.232a.325.325 0 0 1-.072.08.3.3 0 0 1-.232.096.303.303 0 0 1-.24-.096l-.08-.08a.1.1 0 0 1-.024-.04.1.1 0 0 0-.024-.04 1.66 1.66 0 0 0-.064-.16.364.364 0 0 1-.032-.12 1.562 1.562 0 0 1-.024-.272c.005-.09.02-.18.048-.272l.024.024v.104c0 .038.002.075.008.112 0 .022.005.027.016.016.01 0 .016-.008.016-.024a.09.09 0 0 0 .008-.04c0-.016.002-.032.008-.048a.071.071 0 0 0 .008-.032c0-.01.005-.018.016-.024.005 0 .008.003.008.008.005.006.01.008.016.008l.016-.008a.071.071 0 0 0 .008-.032.31.31 0 0 0 .016-.04 2.682 2.682 0 0 1 .192-.576c.037-.08.069-.17.096-.272a.605.605 0 0 0 .128-.192.197.197 0 0 0 .064-.088.078.078 0 0 0 .032-.048c.01-.016.02-.032.032-.048a.125.125 0 0 0 .024-.032H7.52a.183.183 0 0 1 .032-.072l.08-.096a.51.51 0 0 1 .096-.088c.005-.005.008-.01.008-.016l.008-.008a.542.542 0 0 0 .104-.12 2.1 2.1 0 0 0 .096-.12.191.191 0 0 0 .048-.128 6.41 6.41 0 0 0-.008-.32c0-.106-.006-.213-.016-.32a.971.971 0 0 1-.008-.12.791.791 0 0 0-.008-.112.751.751 0 0 0-.032-.232c0-.02-.014-.026-.04-.016a.126.126 0 0 1-.032.024l-.024.024a3.177 3.177 0 0 0-.128.136 2.639 2.639 0 0 1-.12.128l-.04.04a.262.262 0 0 1-.032.04 2.434 2.434 0 0 1-.144.104c-.048.032-.096.07-.144.112a.48.48 0 0 1-.128.064l-.128.048a.04.04 0 0 1-.048 0 .435.435 0 0 1-.16-.056c-.054-.02-.088-.064-.104-.128a.09.09 0 0 1-.008-.04.086.086 0 0 0-.016-.048.359.359 0 0 1 0-.184l.048-.168a.912.912 0 0 1 .048-.16c.026-.064.05-.125.072-.184.026-.058.058-.117.096-.176a5.02 5.02 0 0 1 .136-.224c.048-.08.098-.157.152-.232a3.048 3.048 0 0 1 .232-.264.262.262 0 0 1 .04-.032.119.119 0 0 1 .056-.032.602.602 0 0 0 .104-.04.601.601 0 0 1 .104-.04.576.576 0 0 1 .12-.032 1.03 1.03 0 0 1 .128-.008c.026 0 .05.003.072.008a.567.567 0 0 1 .072.024c.048.016.08.051.096.104.005.011 0 .024-.016.04a.054.054 0 0 1-.04.016.099.099 0 0 1-.056.016.15.15 0 0 0-.048.008.278.278 0 0 0-.192.096.263.263 0 0 1-.04.032.125.125 0 0 0-.032.024.577.577 0 0 0-.112.072 1.312 1.312 0 0 0-.08.088 3.625 3.625 0 0 1-.136.16 2.099 2.099 0 0 0-.128.16c-.043.054-.08.107-.112.16a4.4 4.4 0 0 0-.08.168.494.494 0 0 0-.056.088.442.442 0 0 1-.04.088A.314.314 0 0 0 7 4.52a1.977 1.977 0 0 1-.04.136l-.032.136a.061.061 0 0 0-.008.024.036.036 0 0 1 .008.024c0 .016.01.024.032.024a.061.061 0 0 1 .024-.008l.032-.016c.09-.053.168-.109.232-.168.096-.09.189-.184.28-.28l.272-.288a.404.404 0 0 0 .048-.096.123.123 0 0 0 .016-.048.318.318 0 0 1 .096-.08.44.44 0 0 1 .088-.016c.026 0 .05.003.072.008h.072c.042.011.06.032.056.064a.363.363 0 0 0 .008.2v.048c.01.075.016.15.016.224l.016.224a.244.244 0 0 1 0 .088.45.45 0 0 1-.008.088 1.06 1.06 0 0 0 0 .264v.216c0 .08.037.107.112.08a190.811 190.811 0 0 1 .128-.064.604.604 0 0 1 .2-.088c.069-.016.14-.029.216-.04a.378.378 0 0 1 .192.04ZM7.152 4.048c-.006 0-.008.006-.008.016 0-.005.002-.008.008-.008v-.008Zm-.136.2c-.022.022-.032.054-.032.096.005-.005.01-.008.016-.008l.016-.016a2.07 2.07 0 0 0 .12-.248v-.008c-.006.006-.011.008-.016.008l-.008.008-.096.168Zm-.136.368a.734.734 0 0 1 .04-.096.37.37 0 0 0 .048-.104.166.166 0 0 0 .008-.064c-.016.006-.03.022-.04.048l-.064.128a.625.625 0 0 0-.048.128 2.336 2.336 0 0 1-.024.104c-.006.006-.003.027.008.064l.04-.112c.01-.032.02-.064.032-.096Zm1.208.28a.477.477 0 0 0-.024.152c.005.07.008.136.008.2v.248h.008c0 .006.002.008.008.008.016 0 .024-.002.024-.008l.016-.032c.005-.005.008-.013.008-.024l-.016-.272a4.843 4.843 0 0 0-.024-.264c0-.005-.003-.008-.008-.008Zm-.88 3.344a1.318 1.318 0 0 0 .16-.16l.096-.16a1.59 1.59 0 0 0 .088-.152c.02-.053.042-.104.064-.152a.764.764 0 0 0 .064-.152c.016-.048.032-.098.048-.152.016-.048.034-.096.056-.144a.748.748 0 0 0 .056-.176 6.96 6.96 0 0 0 .048-.168.177.177 0 0 0 .008-.056c0-.016.005-.032.016-.048.01-.042.018-.088.024-.136l.016-.144c.005-.08.008-.16.008-.24.005-.08.013-.16.024-.24v-.032c-.016-.016-.022-.024-.016-.024-.016 0-.027.003-.032.008a2.866 2.866 0 0 1-.144.12.49.49 0 0 0-.12.136.262.262 0 0 1-.032.04.1.1 0 0 1-.024.04.27.27 0 0 0-.064.072l-.048.08a.73.73 0 0 1-.056.08.494.494 0 0 1-.056.088c-.011.011-.02.016-.024.016a3.033 3.033 0 0 0-.12.2c-.027.06-.051.118-.072.176a1.828 1.828 0 0 1-.064.176 2.72 2.72 0 0 0-.064.264c-.011.091-.02.184-.024.28 0 .075.005.147.016.216.01.07.02.142.032.216.01.048.026.091.048.128.01.022.029.027.056.016.005-.005.01-.008.016-.008.005 0 .01-.002.016-.008Zm.864-1.656c.02-.122.034-.245.04-.368a8.44 8.44 0 0 1 .024-.376.09.09 0 0 1-.008-.04.071.071 0 0 0-.008-.032c0-.01-.008-.016-.024-.016h-.008c0 .006-.003.008-.008.008l-.016.048a.235.235 0 0 0-.008.056l-.016.144v.136a.31.31 0 0 1-.008.072.371.371 0 0 1-.008.072l-.016.072A.407.407 0 0 1 8 6.44a.407.407 0 0 1-.008.08 2.97 2.97 0 0 1-.16.712l-.048.144a1.35 1.35 0 0 0-.024.144.314.314 0 0 1-.032.072c-.06.091-.115.18-.168.264a3.35 3.35 0 0 0-.144.272.072.072 0 0 1-.04.048.686.686 0 0 1-.088.088v.032h.024a.658.658 0 0 0 .096-.056c.026-.005.05-.024.072-.056a4.16 4.16 0 0 0 .12-.208.948.948 0 0 0 .104-.208.203.203 0 0 1 .048-.096.244.244 0 0 0 .056-.08c.01-.026.02-.053.032-.08a2.51 2.51 0 0 1 .032-.104 2.108 2.108 0 0 0 .136-.464c.026-.117.048-.237.064-.36Zm-.864 0a.125.125 0 0 0 .024-.032l.032-.016V6.6c-.038.016-.062.038-.072.064a.56.56 0 0 1-.04.08c-.016.032-.03.062-.04.088-.011.022-.022.035-.032.04 0-.032.002-.056.008-.072l.048-.112a.72.72 0 0 1 .072-.104Zm-.136.304a.25.25 0 0 1-.056.168c0-.069.018-.125.056-.168v-.016h.008v.008c-.006 0-.008.003-.008.008Zm.312-.48a.522.522 0 0 0-.056.032c.01-.048.029-.077.056-.088v.056Zm.008 0-.008.008v-.008h.008Zm-.456.992a.036.036 0 0 0-.008-.024v-.008l.008-.008v.04Zm.072-.336.008-.008v.008l-.008.008v-.008ZM7 7.12c-.006.006-.011.006-.016 0l.008-.016A.02.02 0 0 0 7 7.088c0-.005.002-.01.008-.016v.032c0 .011-.003.016-.008.016Zm-.152.184-.008.008V7.28a.036.036 0 0 1 .008.024Zm.608-.992v.008h-.008v-.008h.008Zm-.008 0h-.024c0-.02.008-.04.024-.056v.056Zm-.152.168a.186.186 0 0 1-.032.048.071.071 0 0 0 .008-.032.093.093 0 0 1 .024-.016Zm.224-.264v.008h-.008v-.008h.008Zm-.008 0h-.024l.024-.024v.024Zm-.024.008-.016.016v-.016c.005 0 .008-.002.008-.008h.008v.008Zm-.016.016-.016.016h-.008v-.008c.01 0 .018-.002.024-.008Zm-.048.08c-.006.006-.011.008-.016.008a.093.093 0 0 0-.016.024h-.008v-.008a.048.048 0 0 0 .032-.032h.008v.008Zm-.096.12a.048.048 0 0 1-.032.032c.005-.005.008-.01.008-.016a.093.093 0 0 1 .024-.016Zm1.726-1.624a.805.805 0 0 0 .024-.144c.01-.058.016-.12.016-.184a2.22 2.22 0 0 0 .008-.184c.006-.058.008-.106.008-.144 0-.09-.002-.18-.008-.272v-.296c.006-.085.024-.14.056-.168a.347.347 0 0 1 .176-.048.07.07 0 0 1 .032.008h.048c.059.011.096.048.112.112a.37.37 0 0 1 .008.072c0 .022.008.043.024.064.006.006.016.008.032.008.006-.005.008-.01.008-.016a26.4 26.4 0 0 1 .024-.024c.038-.053.072-.104.104-.152a1.67 1.67 0 0 1 .112-.16.823.823 0 0 1 .088-.104c.032-.037.062-.074.088-.112a1.639 1.639 0 0 1 .336-.296.628.628 0 0 1 .384-.128l.144.016c.054.006.104.014.152.024.086.016.15.072.192.168a.151.151 0 0 1-.008.128.1.1 0 0 1-.048.024c-.016.006-.03.003-.04-.008a.17.17 0 0 0-.032-.04.506.506 0 0 0-.072-.112.192.192 0 0 0-.104-.064.14.14 0 0 0-.104.008l-.048.032-.048.032a2.1 2.1 0 0 0-.168.136 1.287 1.287 0 0 0-.144.152l-.08.096-.08.08c-.053.06-.104.12-.152.184a3.886 3.886 0 0 1-.136.176l-.032.064a.52.52 0 0 0-.032.056 3.108 3.108 0 0 0-.16.28l-.144.288a1.07 1.07 0 0 0-.04.096 743.027 743.027 0 0 0-.064.288.881.881 0 0 1-.016.104c-.01.032-.024.067-.04.104a.097.097 0 0 1-.064.056.086.086 0 0 1-.08-.008.723.723 0 0 1-.096-.064c-.005-.005-.021-.008-.048-.008-.021 0-.034-.008-.04-.024l-.048-.096Zm.68-1.176a.117.117 0 0 0 .024-.072c.027-.01.05-.042.072-.096h.008l-.008.008c-.032.016-.053.046-.064.088a.1.1 0 0 0-.032.072.1.1 0 0 0-.04.032.214.214 0 0 1-.04.056.52.52 0 0 0-.032.056c-.026.048-.024.088.008.12.022.032.04.038.056.016a.1.1 0 0 1 .032-.04.73.73 0 0 0 .056-.08.42.42 0 0 1 .064-.08.696.696 0 0 0 .12-.152.491.491 0 0 0 .08-.104c.027-.037.054-.072.08-.104.038-.042.072-.085.104-.128.038-.042.072-.085.104-.128a.717.717 0 0 0 .064-.096.142.142 0 0 0 .096-.064c.006-.005.006-.013 0-.024 0-.005-.005-.008-.016-.008-.048.016-.072.048-.072.096-.032-.01-.058-.01-.08 0l-.08.08a.99.99 0 0 0-.08.072 5.328 5.328 0 0 0-.208.272 4.272 4.272 0 0 0-.176.28.158.158 0 0 1-.04.056c-.005.006-.01.006-.016 0-.01 0-.016-.005-.016-.016a.28.28 0 0 1-.008-.08c.022-.01.035-.02.04-.032Zm-.104.264.008-.008c.006 0 .008.003.008.008H9.63Zm3.44.512-.017.008h.008c0-.005.003-.008.008-.008 0-.005 0-.005 0 0Zm.04-.04-.009.016c-.005 0-.008.003-.008.008h-.008l.024-.024Zm.047-.056a.185.185 0 0 0 .04-.024l-.032.032-.016.016c0 .006-.005.011-.016.016l-.016.008.016-.016a.124.124 0 0 0 .024-.032Zm.768-.832c0 .006-.002.008-.008.008l-.016.008c0-.02.008-.029.024-.024v.008Zm-.896.968v-.008c.006 0 .014-.005.024-.016-.01.011-.016.02-.016.024h-.008Zm.168-.16c.006-.005.008-.01.008-.016a.092.092 0 0 1 .024-.016c.006-.005.011-.008.016-.008a.093.093 0 0 0 .016-.024.17.17 0 0 0-.032.04l-.016.016c-.005 0-.01.003-.016.008Zm.648-.76c.011-.01.02-.016.024-.016l.032-.016c-.01.038-.024.062-.04.072l-.08.064c-.02.022-.045.046-.072.072-.074.054-.146.11-.216.168l-.2.168a2.433 2.433 0 0 0-.12.112 2.009 2.009 0 0 1-.104.112.688.688 0 0 1-.088.088.767.767 0 0 1-.096.08l-.04.04a.186.186 0 0 0-.032.048v.016l.016.008h.008a.355.355 0 0 0 .064-.032.42.42 0 0 1 .064-.04.106.106 0 0 1 .064-.024.093.093 0 0 1-.016.024.093.093 0 0 0-.016.024.062.062 0 0 0-.008.024c.006.006.006.014 0 .024.006.011.006.02 0 .024a.349.349 0 0 1-.08.096 1.325 1.325 0 0 1-.288.216 3.671 3.671 0 0 1-.208.112.173.173 0 0 1-.176 0 .214.214 0 0 1-.056-.04.28.28 0 0 0-.056-.056l-.048-.048a.618.618 0 0 1-.096-.152.898.898 0 0 1-.056-.184 2.786 2.786 0 0 0-.016-.088v-.088c-.01-.032-.026-.042-.048-.032a3.442 3.442 0 0 1-.176.12 1.043 1.043 0 0 0-.16.12l-.144.128a3.789 3.789 0 0 1-.152.112.721.721 0 0 0-.104.072 1.794 1.794 0 0 1-.208.12.153.153 0 0 1-.136-.016l-.112-.072a.192.192 0 0 1-.072-.096.443.443 0 0 0-.04-.104.39.39 0 0 1 .016-.16.522.522 0 0 1 .056-.152c.032-.074.07-.144.112-.208.043-.064.088-.125.136-.184.027-.037.054-.072.08-.104.032-.032.064-.06.096-.088.054-.042.104-.088.152-.136.048-.053.1-.104.152-.152.091-.08.18-.138.264-.176a.23.23 0 0 1 .12-.04.21.21 0 0 0 .104-.048.086.086 0 0 1 .064-.024l.12.016c.043.006.086.014.128.024.07.027.131.086.184.176.027.043.03.083.008.12a.124.124 0 0 0-.024.032.062.062 0 0 1-.008.024.16.16 0 0 1-.048.08l-.088.056c-.02.022-.042.027-.064.016a.086.086 0 0 0-.048-.016.086.086 0 0 1-.048-.016c.006 0 0-.008-.016-.024l.008-.008.08-.096a.122.122 0 0 0 .016-.12c-.016-.053-.048-.069-.096-.048a.187.187 0 0 0-.048.032.34.34 0 0 1-.144.088 1.414 1.414 0 0 0-.152.088l-.128.096a1.461 1.461 0 0 0-.136.12l-.128.128a.337.337 0 0 0-.064.088.96.96 0 0 0-.072.08 2.547 2.547 0 0 0-.176.24 2.62 2.62 0 0 0-.096.176v.032c0 .011.014.016.04.016l.024-.016a.946.946 0 0 0 .144-.072l.328-.216.392-.256a.528.528 0 0 0 .056-.032.142.142 0 0 1 .064-.016c.038-.01.067 0 .088.032a.322.322 0 0 0 .136.104c.011 0 .024.014.04.04.011.016.022.04.032.072a.101.101 0 0 1 0 .08.609.609 0 0 0-.008.176c.011.064.02.12.024.168 0 .011.006.027.016.048 0 .016.011.024.032.024a.114.114 0 0 0 .048-.016 2.929 2.929 0 0 0 .584-.424c.064-.058.131-.117.2-.176l.216-.184a9.198 9.198 0 0 0 .52-.424Zm-2.328-.024c-.026.011-.04.02-.04.024a.185.185 0 0 0 .04-.024Zm-.848.96.008-.016-.016.016h.008Zm.16-.232c.144-.197.312-.384.504-.56a.522.522 0 0 1 .048-.056l.064-.048c.006-.005.008-.01.008-.016 0-.005.003-.013.008-.024-.005.006-.013.008-.024.008l-.128.08a.979.979 0 0 0-.12.104l-.088.096-.28.32a.518.518 0 0 0-.08.128c-.02.048-.042.096-.064.144v.032c.016-.005.03-.018.04-.04l.112-.168Zm1.048 0c.011-.016.006-.029-.016-.04-.005-.005-.013-.008-.024-.008v-.008c-.016.016-.026.022-.032.016-.048-.016-.096 0-.144.048l-.064.056a.076.076 0 0 0-.032.064c0 .016-.013.03-.04.04a.202.202 0 0 1-.048.024c-.01.006-.02.022-.032.048l.08-.016a1.66 1.66 0 0 0 .168-.088 3.133 3.133 0 0 0 .168-.128c.006-.005.011-.008.016-.008Zm1.416-.04v.008c-.01.016-.02.024-.032.024l.032-.032Z"/><path fill="#7584D6" d="M16.5 1.944c-.005 0 0 .008.016.024v.016c-.01.011-.018.016-.024.016a.123.123 0 0 1-.048.016.263.263 0 0 0-.064.008.13.13 0 0 1-.056-.016.161.161 0 0 0-.088-.008.45.45 0 0 1-.088-.008.242.242 0 0 0-.072.008.214.214 0 0 1-.096.008.285.285 0 0 0-.152-.008c-.037.011-.064.014-.08.008A.74.74 0 0 1 15.644 2a.29.29 0 0 0-.096 0l-.096.016a.244.244 0 0 1-.088 0 1.69 1.69 0 0 0-.168.008.428.428 0 0 0-.16.032c-.016 0-.018.008-.008.024l.008.008c.01 0 .019.003.024.008h.024a.407.407 0 0 1 .08-.008.406.406 0 0 0 .08-.008h.104a.79.79 0 0 0 .112-.008 3.686 3.686 0 0 0 .264-.024h.12c.043 0 .086.006.128.016.006 0 .014.006.024.016v.008c0 .006-.002.008-.008.008-.005 0-.01.003-.016.008h-.008a3.686 3.686 0 0 1-.28.04.738.738 0 0 0-.104.008.302.302 0 0 0-.096.016.28.28 0 0 1-.08.008.582.582 0 0 0-.096.008h-.088a.262.262 0 0 0-.064.016.23.23 0 0 1-.104.024.243.243 0 0 1-.072.008c-.085.016-.17.027-.256.032a2 2 0 0 0-.248.016.675.675 0 0 0-.12.016c-.053.006-.088.038-.104.096 0 .011-.002.02-.008.024v.024l-.048.24c-.016.08-.03.16-.04.24a.32.32 0 0 0-.024.064.196.196 0 0 1-.016.072.283.283 0 0 1-.024.072l-.016.072a.604.604 0 0 1-.104.224.316.316 0 0 0-.064.16 1.87 1.87 0 0 0-.008.168.792.792 0 0 1 0 .16v.28a4.66 4.66 0 0 0 .016.384c.006.032.01.067.016.104a.84.84 0 0 1 .016.232.172.172 0 0 0 .008.088c.006.038.01.072.016.104a.861.861 0 0 0 .024.112c0 .027-.01.035-.032.024a.277.277 0 0 1-.08-.04h-.016c0 .006-.002.008-.008.008v.008a.91.91 0 0 0 .136.368h.008c.006.011.014.011.024 0h.008l-.008.008c.043.022.072.062.088.12.038.123.11.23.216.32a.28.28 0 0 0 .208.08c.027 0 .038.008.032.024 0 .006-.008.016-.024.032h-.04c0 .006-.002.008-.008.008a.071.071 0 0 1-.032-.008h-.032a.386.386 0 0 1-.272-.064.757.757 0 0 1-.28-.328 84.292 84.292 0 0 0-.08-.128 1.146 1.146 0 0 0-.04-.088 1.146 1.146 0 0 0-.04-.088 1.042 1.042 0 0 1-.056-.136.712.712 0 0 1-.032-.16 3.113 3.113 0 0 1-.016-.088.45.45 0 0 0-.024-.08.861.861 0 0 1-.024-.112.829.829 0 0 0-.024-.112l-.016-.096a.744.744 0 0 1-.008-.104.576.576 0 0 0-.008-.096 67.508 67.508 0 0 1-.024-.328c0-.08.003-.157.008-.232v-.176c0-.144.01-.277.032-.4a.66.66 0 0 0 .016-.144c0-.048.003-.093.008-.136.016-.1.03-.202.04-.304l.048-.304c0-.026.003-.045.008-.056 0-.048-.021-.072-.064-.072h-.296a1.732 1.732 0 0 0-.288.008h-.016a1.528 1.528 0 0 0-.152-.008 1.375 1.375 0 0 0-.152-.008l-.048-.024a.199.199 0 0 1-.072-.192c.01-.037.03-.056.056-.056h.064a.177.177 0 0 1 .056-.008l.216.016h.44l.24-.016c.048 0 .075-.026.08-.08v-.016a12.686 12.686 0 0 1 .192-.912c.032-.133.072-.258.12-.376A.332.332 0 0 1 14.1.56c.032-.032.064-.048.096-.048h.024c.006-.005.01-.008.016-.008a.336.336 0 0 1 .16.008c.059.022.094.067.104.136v.048a.073.073 0 0 1 0 .048l-.032.176a2.09 2.09 0 0 1-.024.168l-.032.16a4.44 4.44 0 0 0-.072.424 4.786 4.786 0 0 1-.024.264c0 .011.003.02.008.024 0 .032.014.048.04.048h.256l.208-.016h.152c.054 0 .107-.002.16-.008h.08c.102-.01.2-.016.296-.016.102 0 .2-.005.296-.016a.97.97 0 0 1 .12-.008.266.266 0 0 1 .112.008.266.266 0 0 1 .112-.008.793.793 0 0 0 .112.008.252.252 0 0 0 .112.008 7 7 0 0 1 .12-.016Zm-2.808 2.872c-.005 0 0-.008.016-.024-.01-.026-.021-.034-.032-.024-.01 0-.016.008-.016.024 0 .027.01.035.032.024Zm.016-1.704H13.7v.008l.008-.008Zm.048.696c.016 0 .024-.005.024-.016.022-.032.024-.06.008-.088 0-.01-.008-.016-.024-.016l-.008.008a.124.124 0 0 0-.016.048v.04c0 .016.006.024.016.024Zm.016.304c0-.01-.002-.018-.008-.024h-.008v.024h.016Zm-.032.176c-.026.054-.026.102 0 .144 0 .006.008.008.024.008.006 0 .008-.005.008-.016.006-.005.008-.013.008-.024a.241.241 0 0 0-.016-.12h-.016l-.008.008Zm.064.296a.459.459 0 0 0-.024.056v.072c.006.006.01.006.016 0 .01-.01.016-.02.016-.032a.07.07 0 0 0-.008-.032v-.064Zm-.064.608a.153.153 0 0 0 .032.112.184.184 0 0 0-.008-.12h-.008c-.01 0-.016.003-.016.008Zm.08.264c.01.011.016.022.016.032v-.032c0-.02-.005-.026-.016-.016v.016Zm.048.08a.124.124 0 0 0-.024-.032v.032c.01.022.019.024.024.008v-.008Zm.008-.44a.294.294 0 0 0-.024-.152.541.541 0 0 1-.032-.056.271.271 0 0 0-.032-.072.373.373 0 0 0-.008.072c.006.032.01.067.016.104a.981.981 0 0 0 .024.104l.008.008c.016.016.024.02.024.008.016 0 .024-.005.024-.016Zm.096-2.64V2.4a.073.073 0 0 0 0-.048c0-.01-.008-.016-.024-.016-.021 0-.032.008-.032.024a.9.9 0 0 0-.064.32.84.84 0 0 1-.008.12l-.016.112a2.603 2.603 0 0 0-.048.304v.08a.196.196 0 0 1-.016.072.265.265 0 0 0-.016.08c0 .038.008.067.024.088.006 0 .008.003.008.008h.008c.01 0 .016-.005.016-.016a.576.576 0 0 0 .032-.184c0-.053.008-.104.024-.152.01-.058.019-.117.024-.176a5.168 5.168 0 0 1 .04-.28.648.648 0 0 1 .024-.096l.016-.088a.576.576 0 0 0 .008-.096Zm.112-.056a.036.036 0 0 0-.008.024c-.005.006-.002.011.008.016V2.4Zm-.056-.424.048-.128c.016-.042.022-.088.016-.136V1.68a.07.07 0 0 0 .008-.032h-.016a1.32 1.32 0 0 1-.056.176.794.794 0 0 1-.016.072.339.339 0 0 1-.008.064c0 .006.006.014.016.024l.008-.008Zm.144 0 .008-.008a.561.561 0 0 0 .032-.136c.006-.048.008-.096.008-.144a.387.387 0 0 0-.064.272c0 .011.006.016.016.016Zm.048-.304a.101.101 0 0 0 .008-.088.32.32 0 0 1-.008.088Zm.712.416c0-.01-.002-.016-.008-.016a.09.09 0 0 0-.064-.008.117.117 0 0 1-.072-.008c-.01-.01-.024-.01-.04 0a1.294 1.294 0 0 1-.088.016.214.214 0 0 0-.08.016l.008.016h.32c.006-.005.01-.008.016-.008l.008-.008Zm-.936 3.264c.006-.005.014-.002.024.008l.008.016a.09.09 0 0 1 .016.024v.016l-.016.016c-.042 0-.058-.02-.048-.064l.016-.016Zm2.28-3.296c.027-.01.072-.008.136.008-.064.016-.11.027-.136.032-.005 0-.01-.002-.016-.008-.005-.005-.005-.008 0-.008 0-.016.006-.024.016-.024Zm-.12.016c.01 0 .016.003.016.008l-.008.008h-.008c-.01-.01-.01-.016 0-.016Zm-2.128 3.512h-.024c0-.02.008-.04.024-.056v.056Zm.008-.056h-.008l.008-.008v.008Z"/><path fill="#7584D6" d="M16.15 4.416a.021.021 0 0 1-.007.016v-.016h.008Zm-1.135-1.64h-.008l.032-.352a.13.13 0 0 1 .032-.072.142.142 0 0 1 .064-.04.423.423 0 0 1 .2 0c.026.006.045.016.056.032.016.011.03.024.04.04.037.06.045.115.024.168l-.112.224-.12.216c-.022.022-.038.032-.048.032a.102.102 0 0 1-.096 0c-.043-.016-.064-.04-.064-.072v-.176Zm1.088 1.696h-.008l.008-.008c.005-.005.01-.008.016-.008.005 0 .01-.005.016-.016.005 0 .008-.002.008-.008v.016l-.04.024Zm.464-.832c.005-.005.01-.005.016 0 .005.006.008.011.008.016l-.016.104a.182.182 0 0 1-.032.072c-.01.011-.019.014-.024.008-.043-.02-.075-.02-.096 0l-.04.064-.376.512-.048.08a.112.112 0 0 0-.008.048.08.08 0 0 0 .04-.008.308.308 0 0 0 .04-.016.127.127 0 0 1 .032-.024.124.124 0 0 0 .032-.024.062.062 0 0 0-.008.024c0 .006-.003.011-.008.016a1.34 1.34 0 0 0-.08.088.496.496 0 0 0-.056.088.511.511 0 0 0-.096.088.412.412 0 0 1-.08.088l-.096.104a.185.185 0 0 1-.08.04.732.732 0 0 0-.12.032.55.55 0 0 1-.184.016l-.064-.016a.197.197 0 0 1-.072-.016.972.972 0 0 1-.144-.08.378.378 0 0 1-.104-.12.418.418 0 0 1-.024-.04.734.734 0 0 1-.056-.28 5.224 5.224 0 0 1-.008-.288c.005-.1.016-.202.032-.304a2.33 2.33 0 0 0 .024-.192l.032-.208a.206.206 0 0 0 .008-.064.215.215 0 0 1 .072-.08.29.29 0 0 1 .224-.024c.042.006.08.024.112.056a.077.077 0 0 1 .024.056.237.237 0 0 0-.008.056.128.128 0 0 1-.016.056l-.016.08a.557.557 0 0 1-.024.072c-.01.027-.022.056-.032.088a2.183 2.183 0 0 0-.04.256 2.316 2.316 0 0 1-.024.16 2.084 2.084 0 0 0-.016.36c0 .07.013.14.04.208.026.048.053.07.08.064.01 0 .026-.005.048-.016a.273.273 0 0 0 .112-.056.831.831 0 0 1 .136-.088.614.614 0 0 0 .136-.104c.096-.096.184-.194.264-.296.085-.1.168-.205.248-.312l.216-.28a.078.078 0 0 1 .048-.032.974.974 0 0 1 .072-.032Zm-1.632.856h-.008v.008l.008-.008Zm0-.312c-.006.006-.008.011-.008.016 0 .011.002.011.008 0v-.016Zm.984.384c.016 0 .024-.008.024-.024l-.024.024Z"/><path fill="#7584D6" d="M18.338 3.848a.09.09 0 0 1 .032-.032.048.048 0 0 1-.032.032Zm.12-.168a.122.122 0 0 1-.056.088.036.036 0 0 0-.008-.024v-.032c-.01-.037.005-.06.048-.072 0-.005.003-.005.008 0 .005 0 .008.003.008.008v.032Zm-.088.128a.188.188 0 0 1 .024-.04c0 .022-.008.035-.024.04Zm-.064.088a.092.092 0 0 1 .032-.04c-.01.022-.021.035-.032.04Zm-.032.048a.092.092 0 0 1 .032-.04c-.01.022-.021.035-.032.04Zm-.024-.152a.125.125 0 0 0-.032.024h-.008a.126.126 0 0 0 .032-.024h.008Zm.008.16h.016a.124.124 0 0 0-.024.032c0 .011-.006.022-.016.032-.054.08-.11.15-.168.208a.83.83 0 0 1-.232.224l-.048.032a.143.143 0 0 0-.04.04.552.552 0 0 1-.144.104 2.23 2.23 0 0 1-.16.08.765.765 0 0 1-.152.064 2.31 2.31 0 0 0-.152.04 1.935 1.935 0 0 1-.256.024c-.006.006-.008.011-.008.016l-.16.128a1.19 1.19 0 0 1-.24.128.243.243 0 0 1-.072.008.312.312 0 0 0-.064-.024.151.151 0 0 1-.048-.008c-.09-.016-.15-.05-.176-.104-.006-.02-.027-.037-.064-.048-.038-.02-.056-.05-.056-.088a.794.794 0 0 1 .04-.4.447.447 0 0 1 .08-.168.077.077 0 0 0 .024-.056l.016-.088a.245.245 0 0 0 0-.088.552.552 0 0 1 .048-.296c.042-.096.101-.186.176-.272a.385.385 0 0 1 .056-.048c.005-.005.01-.008.016-.008l.032-.016a.45.45 0 0 0 .176-.032.602.602 0 0 1 .168-.008c.053.006.11.016.168.032l.048.024c.165.096.237.22.216.368a.373.373 0 0 0-.008.072.117.117 0 0 1-.008.072l-.016.008c-.01 0-.016-.005-.016-.016a.13.13 0 0 1 .008-.056c0-.01-.003-.016-.008-.016v-.024l-.016-.008c-.005.006-.01.008-.016.008l-.008.008c-.01.06-.027.12-.048.184a2.25 2.25 0 0 0-.056.176.283.283 0 0 1-.024.072l-.032.064a.253.253 0 0 0-.016.072c.01-.01.018-.016.024-.016a.052.052 0 0 0 .024-.024c.01-.005.016-.01.016-.016.005-.005.013-.008.024-.008.005.032-.006.067-.032.104a1.477 1.477 0 0 0-.064.096.25.25 0 0 1-.064.088c-.021.022-.027.035-.016.04a.128.128 0 0 0 .064 0l.104-.032a.832.832 0 0 0 .104-.032l.096-.04c.075-.032.141-.069.2-.112a4.654 4.654 0 0 0 .736-.632.197.197 0 0 1-.08.16l-.24.24a.186.186 0 0 0-.032.048v.008c0 .006.002.008.008.008.021 0 .04-.008.056-.024l.152-.12c.048-.042.093-.088.136-.136l.048-.048Zm-1.16-.112h.016l-.008-.008-.008.008Zm-.048-.272v.024h.016l.008-.008-.016-.016h-.008Zm-.56.44a.262.262 0 0 0-.016.08c.01.011.016.02.016.024.01.027.021.067.032.12.005.011.005.024 0 .04v.032a.379.379 0 0 0-.016.104v.096c0 .043.018.083.056.12a.336.336 0 0 0 .048.032c.032 0 .053.003.064.008a.525.525 0 0 0 .064-.08.244.244 0 0 1 .024-.032l.024-.024c.037-.048.07-.096.096-.144.016-.037.032-.072.048-.104a.946.946 0 0 0 .04-.112.632.632 0 0 0 .048-.288.557.557 0 0 0-.064-.264.412.412 0 0 0-.096-.112c-.016-.01-.03-.01-.04 0l-.032.016c-.006 0-.01.003-.016.008a.522.522 0 0 0-.048.056.32.32 0 0 1-.04.048.96.96 0 0 0-.072.08.733.733 0 0 1-.056.08.14.14 0 0 0-.016.04.136.136 0 0 1-.016.088 1.6 1.6 0 0 0-.032.088Zm-.12-.304c-.006 0-.01.003-.016.008h-.016c.005.006.016.008.032.008h.008c.005-.005.01-.008.016-.008l-.008-.008h-.016Zm-.04.016c-.016.011-.024.024-.024.04.016-.005.024-.018.024-.04Zm-.032.048c-.016.011-.024.024-.024.04a.07.07 0 0 1 .032.008.112.112 0 0 1-.008-.048Zm-.032.048v.016-.016Zm-.056.216c0-.01-.003-.016-.008-.016v.016h.008Zm.024-.12v-.008l-.008.008h.008Zm.168.984a.807.807 0 0 0 .096-.048.977.977 0 0 0 .08-.072.202.202 0 0 0-.048-.024.31.31 0 0 0-.04-.016 1.032 1.032 0 0 0-.128-.144c0-.005-.003-.01-.008-.016l-.008.008a.26.26 0 0 0-.016.064 2.51 2.51 0 0 0-.032.104.342.342 0 0 0 0 .104c0 .016.003.03.008.04l.016.016c.01.006.018.006.024 0a.129.129 0 0 0 .056-.016Z"/><path fill="#7584D6" d="M20.801 3.688c.016.006.02.014.008.024a1.312 1.312 0 0 0-.08.088.285.285 0 0 1-.08.08.124.124 0 0 0-.024.032.124.124 0 0 1-.024.032.188.188 0 0 1-.04.064.32.32 0 0 1-.04.048 10.5 10.5 0 0 1-.248.224c-.085.07-.173.14-.264.208a.351.351 0 0 1-.072.04 1.18 1.18 0 0 1-.128.04 1.871 1.871 0 0 0-.12.04c-.042.016-.08.022-.112.016a.95.95 0 0 1-.104-.024.092.092 0 0 1-.024-.016.092.092 0 0 0-.024-.016.528.528 0 0 1-.056-.032.121.121 0 0 0-.048-.04.307.307 0 0 1-.144-.16.63.63 0 0 1-.048-.128 5.316 5.316 0 0 0-.04-.176.09.09 0 0 0-.008-.04c-.01-.026-.024-.032-.04-.016a1.857 1.857 0 0 0-.104.096.63.63 0 0 0-.088.112c-.01.016-.02.032-.032.048a2.349 2.349 0 0 1-.288.432.828.828 0 0 1-.088.104c-.016.027-.04.035-.072.024a.436.436 0 0 0-.056-.024.218.218 0 0 1-.104-.056 5.345 5.345 0 0 0-.072-.088.118.118 0 0 1-.032-.056 1.567 1.567 0 0 1-.016-.072v-.168l.016-.16a1.311 1.311 0 0 0 .032-.28.67.67 0 0 1 .016-.12.802.802 0 0 0 .024-.128l.032-.136.024-.072c.022-.064.062-.088.12-.072a.608.608 0 0 1 .104.04.43.43 0 0 1 .096.048c.027.016.04.038.04.064a.542.542 0 0 1-.008.088.213.213 0 0 1-.016.08.176.176 0 0 0-.024.056.152.152 0 0 1-.008.048 1.332 1.332 0 0 0-.064.2c-.01.064-.02.128-.032.192V4.2c.006 0 .008.003.008.008a.062.062 0 0 1 .024-.008c.006 0 .011-.002.016-.008a1114.54 1114.54 0 0 1 .224-.264c.086-.096.182-.184.288-.264a.559.559 0 0 1 .08-.04c.038-.016.07-.018.096-.008.022.016.056.02.104.008.027-.01.046.003.056.04a.587.587 0 0 1 .032.184v.144c.006.048.008.1.008.152.006.08.03.16.072.24.022.043.056.06.104.048l.064-.016a.313.313 0 0 0 .064-.024c.064-.042.126-.085.184-.128.064-.042.126-.088.184-.136.096-.08.206-.16.328-.24a.414.414 0 0 0 .048.056c.011.022.024.027.04.016a.577.577 0 0 1 .088-.072l.096-.08.072-.056a1.6 1.6 0 0 0 .08-.064Zm-1.584.424c.011-.037.008-.066-.008-.088-.016.016-.018.043-.008.08 0 .006.003.011.008.016l.008-.008Zm1.728-.784-.008.008-.016.016v-.024l.008-.008c.006 0 .011-.002.016-.008v.016Zm-.032.024h.008l-.008.008v-.008Zm-.024.024c0-.01.008-.016.024-.016-.01.011-.018.016-.024.016Zm-.008.008.008-.008v.008c-.005 0-.008.003-.008.008v-.008Zm-.024.024c.011-.01.02-.016.024-.016-.01.011-.018.016-.024.016Zm-.016.016c.006 0 .008-.002.008-.008l.008-.008v.008c-.005.006-.01.008-.016.008 0 .006-.002.008-.008.008l.008-.008Zm-.024.016c.006 0 .011-.002.016-.008-.005.006-.008.011-.008.016l-.008-.008Zm-.032.032.032-.032.008.008a.092.092 0 0 0-.024.016l-.016.008Zm-.192.2.008-.016a.263.263 0 0 1 .04-.032l-.048.048Zm-.176.184a.092.092 0 0 0-.024.016c0 .006-.005.011-.016.016.006-.01.011-.016.016-.016a.093.093 0 0 0 .016-.024h.016l-.008.008Z"/></svg>