<svg xmlns="http://www.w3.org/2000/svg" width="139" height="71" fill="none"><path fill="url(#a)" d="M1.195 14.273C1.022 7.56.935 4.203 2.983 2.102 5.03 0 8.388 0 15.103 0h109.445c6.716 0 10.073 0 12.121 2.102 2.048 2.101 1.961 5.458 1.788 12.171l-1.118 43.174c-.165 6.403-.248 9.604-2.274 11.579C133.039 71 129.836 71 123.431 71H16.221c-6.405 0-9.607 0-11.634-1.974-2.026-1.975-2.108-5.176-2.274-11.58L1.195 14.274Z"/><path fill="#fff" d="M17.41 61V50.2h6.397v1.567h-4.83v3.045h3.93v1.576h-3.93V61H17.41Zm7.299-9.428V50.05h1.567v1.523H24.71Zm0 9.428v-8.1h1.567V61H24.71Zm3.37 0V49.975h1.567V61h-1.568Zm6.812.225c-.805 0-1.513-.175-2.123-.525a3.733 3.733 0 0 1-1.417-1.478c-.335-.635-.503-1.37-.503-2.205 0-.885.165-1.652.495-2.302.335-.65.8-1.153 1.395-1.508s1.288-.532 2.078-.532c.825 0 1.527.193 2.107.578.58.38 1.013.922 1.298 1.627.29.705.405 1.542.345 2.512h-1.568v-.57c-.01-.94-.19-1.635-.54-2.085-.345-.45-.872-.675-1.582-.675-.785 0-1.375.248-1.77.743s-.593 1.21-.593 2.145c0 .89.198 1.58.593 2.07.395.485.965.727 1.71.727.49 0 .912-.11 1.267-.33.36-.224.64-.544.84-.96l1.538.488a3.65 3.65 0 0 1-1.433 1.688 3.989 3.989 0 0 1-2.137.592Zm-2.888-3.833V56.17h5.783v1.222h-5.783Zm10.743 3.825c-.985 0-1.788-.217-2.408-.652-.62-.435-1-1.047-1.14-1.837l1.605-.248c.1.42.33.753.69.998.365.24.818.36 1.358.36.49 0 .872-.1 1.147-.3a.96.96 0 0 0 .42-.825c0-.206-.05-.37-.15-.495-.095-.13-.297-.253-.607-.368-.31-.115-.783-.258-1.418-.428-.695-.18-1.247-.372-1.657-.577-.405-.21-.695-.453-.87-.727-.17-.28-.255-.618-.255-1.013 0-.49.13-.917.39-1.282s.625-.648 1.095-.848c.475-.2 1.03-.3 1.665-.3.62 0 1.172.098 1.657.293.485.194.878.472 1.178.832.3.355.48.773.54 1.253l-1.605.292a1.32 1.32 0 0 0-.548-.922c-.31-.226-.712-.348-1.207-.368-.475-.02-.86.06-1.155.24-.295.175-.443.417-.443.727 0 .18.055.333.165.458.115.125.335.245.66.36.325.115.805.252 1.44.412.68.175 1.22.37 1.62.585.4.21.685.463.855.758.175.29.263.642.263 1.058 0 .8-.293 1.427-.878 1.882-.58.455-1.382.683-2.407.683Z"/><defs><linearGradient id="a" x1="69.826" x2="69.826" y1="0" y2="71" gradientUnits="userSpaceOnUse"><stop stop-color="#9FEBFF"/><stop offset="1" stop-color="#80E5FF"/></linearGradient></defs></svg>